<svg xmlns="http://www.w3.org/2000/svg" xmlns:xlink="http://www.w3.org/1999/xlink" width="654.127" height="134" viewBox="0 0 654.127 134">
  <defs>
    <clipPath id="clip-path">
      <rect id="Rectangle_223" data-name="Rectangle 223" width="654" height="120" transform="translate(306)" fill="#d93b20"/>
    </clipPath>
  </defs>
  <g id="desktop_header" transform="translate(-305.873 0)">
    <g id="desktop_header-2" data-name="desktop_header" clip-path="url(#clip-path)">
      <g id="Group_2371" data-name="Group 2371" transform="translate(171.974 -28.596)">
        <path id="Path_67907" data-name="Path 67907" d="M672.049,25.4V50.349l-21.657,12.5V37.873Z" transform="translate(28.97 -17.784)" fill="#df290d"/>
        <path id="Path_67910" data-name="Path 67910" d="M631.227,25.425V50.379l-21.657,12.5V37.9Z" transform="translate(18.464 -7.764)" fill="#de250a"/>
        <path id="Path_67911" data-name="Path 67911" d="M590.406,25.482V50.436l-21.657,12.5V37.959Z" transform="translate(15.973 -7.761)" fill="#de230a"/>
        <path id="Path_67912" data-name="Path 67912" d="M549.585,25.511V50.465l-21.657,12.5V37.988Z" transform="translate(13.481 -7.759)" fill="#dd220a"/>
        <path id="Path_67913" data-name="Path 67913" d="M427.121,25.439V50.393L405.464,62.9V37.916Z" transform="translate(6.007 -7.763)" fill="#c51b0f"/>
        <path id="Path_67914" data-name="Path 67914" d="M467.942,25.468V50.422l-21.657,12.5V37.945Z" transform="translate(8.498 -7.761)" fill="#d0200d"/>
        <path id="Path_67915" data-name="Path 67915" d="M508.764,25.5V50.45l-21.657,12.5V37.974Z" transform="translate(10.99 -7.76)" fill="#d8220b"/>
        <path id="Path_67916" data-name="Path 67916" d="M386.3,25.468V50.422l-21.657,12.5V37.945Z" transform="translate(3.515 -7.761)" fill="#bf1a0f"/>
        <path id="Path_67917" data-name="Path 67917" d="M345.478,25.526V50.48l-21.656,12.5V38Z" transform="translate(1.024 -7.758)" fill="#bf1a0f"/>
        <path id="Path_67918" data-name="Path 67918" d="M304.657,25.555V50.509L283,63.013V38.032Z" transform="translate(-1.467 -7.756)" fill="#c31b0f"/>
        <path id="Path_67919" data-name="Path 67919" d="M182.193,25.526V50.48l-21.656,12.5V38Z" transform="translate(-8.942 -7.758)" fill="#da230a"/>
        <path id="Path_67920" data-name="Path 67920" d="M223.014,25.555V50.509l-21.656,12.5V38.032Z" transform="translate(-6.45 -7.756)" fill="#d7210b"/>
        <path id="Path_67921" data-name="Path 67921" d="M263.835,25.583V50.537l-21.656,12.5V38.06Z" transform="translate(-3.959 -7.754)" fill="#cf1e0d"/>
        <path id="Path_67922" data-name="Path 67922" d="M141.371,25.555V50.509l-21.656,12.5V38.032Z" transform="translate(-11.433 -7.756)" fill="#d9250a"/>
        <path id="Path_67923" data-name="Path 67923" d="M100.55,25.612V50.566L78.894,63.071V38.089Z" transform="translate(-13.925 -7.753)" fill="#db2c09"/>
        <path id="Path_67924" data-name="Path 67924" d="M59.729,25.641V50.595L38.072,63.1V38.118Z" transform="translate(-16.416 -7.751)" fill="#e23a09"/>
        <path id="Path_67931" data-name="Path 67931" d="M692.459,60.6V85.549L670.8,98.054V73.072Z" transform="translate(22.201 -5.618)" fill="#e02e0e"/>
        <path id="Path_67934" data-name="Path 67934" d="M651.637,60.624V85.578L629.982,98.083V73.1Z" transform="translate(19.71 -5.616)" fill="#e02e0c"/>
        <path id="Path_67935" data-name="Path 67935" d="M610.816,60.682V85.635L589.16,98.14V73.158Z" transform="translate(17.218 -5.612)" fill="#df2a0a"/>
        <path id="Path_67936" data-name="Path 67936" d="M569.995,60.711V85.664l-21.656,12.5V73.188Z" transform="translate(14.727 -5.61)" fill="#de2709"/>
        <path id="Path_67937" data-name="Path 67937" d="M447.531,60.638V85.593L425.875,98.1V73.116Z" transform="translate(7.253 -5.615)" fill="#d0200d"/>
        <path id="Path_67938" data-name="Path 67938" d="M488.352,60.667V85.621L466.7,98.126V73.144Z" transform="translate(9.744 -5.613)" fill="#d8240b"/>
        <path id="Path_67939" data-name="Path 67939" d="M529.174,60.7V85.65l-21.656,12.5V73.173Z" transform="translate(12.235 -5.611)" fill="#dc260a"/>
        <path id="Path_67940" data-name="Path 67940" d="M406.71,60.667V85.621l-21.656,12.5V73.144Z" transform="translate(4.761 -5.613)" fill="#c61c0e"/>
        <path id="Path_67941" data-name="Path 67941" d="M365.888,60.725V85.679L344.232,98.184V73.2Z" transform="translate(2.27 -5.61)" fill="#c21b0f"/>
        <path id="Path_67942" data-name="Path 67942" d="M325.067,60.754V85.708l-21.656,12.5V73.231Z" transform="translate(-0.222 -5.608)" fill="#c61c0f"/>
        <path id="Path_67943" data-name="Path 67943" d="M202.6,60.725V85.679L180.947,98.184V73.2Z" transform="translate(-7.696 -5.61)" fill="#dd230a"/>
        <path id="Path_67944" data-name="Path 67944" d="M243.425,60.754V85.708l-21.656,12.5V73.231Z" transform="translate(-5.205 -5.608)" fill="#d51f0c"/>
        <path id="Path_67945" data-name="Path 67945" d="M284.246,60.783V85.736L262.59,98.241V73.26Z" transform="translate(-2.713 -5.606)" fill="#ce1d0d"/>
        <path id="Path_67946" data-name="Path 67946" d="M161.782,60.754V85.708l-21.656,12.5V73.231Z" transform="translate(-10.187 -5.608)" fill="#df290a"/>
        <path id="Path_67947" data-name="Path 67947" d="M120.961,60.812V85.766L99.3,98.27V73.289Z" transform="translate(-12.679 -5.604)" fill="#e0310a"/>
        <path id="Path_67948" data-name="Path 67948" d="M80.139,60.841V85.795L58.483,98.3V73.318Z" transform="translate(-15.17 -5.603)" fill="#e23a0d"/>
        <path id="Path_67955" data-name="Path 67955" d="M672.049,95.672v24.954l-21.657,12.5V108.149Z" transform="translate(20.955 -3.477)" fill="#e23710"/>
        <path id="Path_67956" data-name="Path 67956" d="M712.87,95.7v24.953l-21.657,12.5V108.178Z" transform="translate(41.479 -9.486)" fill="#e13411"/>
        <path id="Path_67958" data-name="Path 67958" d="M631.227,95.7v24.953l-21.657,12.5V108.178Z" transform="translate(18.464 -3.475)" fill="#e1350d"/>
        <path id="Path_67959" data-name="Path 67959" d="M590.406,95.759v24.954l-21.657,12.5V108.236Z" transform="translate(15.973 -3.471)" fill="#e02f0a"/>
        <path id="Path_67960" data-name="Path 67960" d="M549.585,95.788v24.954l-21.657,12.5V108.265Z" transform="translate(13.481 -3.47)" fill="#df2a09"/>
        <path id="Path_67961" data-name="Path 67961" d="M427.121,95.716V120.67l-21.657,12.5V108.193Z" transform="translate(6.007 -3.474)" fill="#d5240b"/>
        <path id="Path_67962" data-name="Path 67962" d="M467.942,95.745V120.7L446.285,133.2V108.222Z" transform="translate(8.498 -3.472)" fill="#dc2809"/>
        <path id="Path_67963" data-name="Path 67963" d="M508.764,95.773v24.954l-21.657,12.5V108.25Z" transform="translate(10.99 -3.47)" fill="#df2a09"/>
        <path id="Path_67964" data-name="Path 67964" d="M386.3,95.745V120.7L364.643,133.2V108.222Z" transform="translate(3.515 -3.472)" fill="#ce200d"/>
        <path id="Path_67965" data-name="Path 67965" d="M345.478,95.8v24.953l-21.656,12.5V108.279Z" transform="translate(1.024 -3.469)" fill="#cd1f0d"/>
        <path id="Path_67966" data-name="Path 67966" d="M304.657,95.831v24.953L283,133.29V108.308Z" transform="translate(-1.467 -3.467)" fill="#d1200d"/>
        <path id="Path_67967" data-name="Path 67967" d="M182.193,95.8v24.953l-21.656,12.5V108.279Z" transform="translate(-8.942 -3.469)" fill="#df290a"/>
        <path id="Path_67968" data-name="Path 67968" d="M223.014,95.831v24.953l-21.656,12.5V108.308Z" transform="translate(-6.45 -3.467)" fill="#d9220b"/>
        <path id="Path_67969" data-name="Path 67969" d="M263.835,95.86v24.954l-21.656,12.5V108.337Z" transform="translate(-3.959 -3.465)" fill="#d5200c"/>
        <path id="Path_67970" data-name="Path 67970" d="M141.371,95.831v24.953l-21.656,12.5V108.308Z" transform="translate(-11.433 -3.467)" fill="#e1340d"/>
        <path id="Path_67971" data-name="Path 67971" d="M100.55,95.889v24.954l-21.656,12.5V108.366Z" transform="translate(-13.925 -3.463)" fill="#e23b0f"/>
        <path id="Path_67972" data-name="Path 67972" d="M59.729,95.918v24.954l-21.656,12.5V108.395Z" transform="translate(-16.416 -3.462)" fill="#e44312"/>
        <path id="Path_67979" data-name="Path 67979" d="M692.459,130.872v24.954L670.8,168.33V143.349Z" transform="translate(22.201 -1.328)" fill="#e33d11"/>
        <path id="Path_67980" data-name="Path 67980" d="M733.28,130.9v24.954l-21.656,12.5V143.378Z" transform="translate(54.746 -1.327)" fill="#e23711"/>
        <path id="Path_67982" data-name="Path 67982" d="M651.637,130.9v24.954l-21.656,12.5V143.378Z" transform="translate(19.71 -1.327)" fill="#e33f10"/>
        <path id="Path_67983" data-name="Path 67983" d="M610.816,130.958v24.954L589.16,168.417V143.435Z" transform="translate(17.218 -1.323)" fill="#e2380c"/>
        <path id="Path_67984" data-name="Path 67984" d="M569.995,130.987v24.954l-21.656,12.505V143.464Z" transform="translate(14.727 -1.321)" fill="#e1320a"/>
        <path id="Path_67985" data-name="Path 67985" d="M447.531,130.915v24.953l-21.656,12.5V143.392Z" transform="translate(7.253 -1.326)" fill="#df2c09"/>
        <path id="Path_67986" data-name="Path 67986" d="M488.352,130.944V155.9L466.7,168.4V143.421Z" transform="translate(9.744 -1.324)" fill="#e0300a"/>
        <path id="Path_67987" data-name="Path 67987" d="M529.174,130.973v24.954l-21.656,12.5V143.45Z" transform="translate(12.235 -1.322)" fill="#e02f0a"/>
        <path id="Path_67988" data-name="Path 67988" d="M406.71,130.944V155.9l-21.656,12.5V143.421Z" transform="translate(4.761 -1.324)" fill="#dc2809"/>
        <path id="Path_67989" data-name="Path 67989" d="M365.888,131v24.954l-21.656,12.5V143.479Z" transform="translate(2.27 -1.32)" fill="#d9250a"/>
        <path id="Path_67990" data-name="Path 67990" d="M325.067,131.031v24.954l-21.656,12.5V143.508Z" transform="translate(-0.222 -1.319)" fill="#d8240b"/>
        <path id="Path_67991" data-name="Path 67991" d="M202.6,131v24.954l-21.656,12.5V143.479Z" transform="translate(-7.696 -1.32)" fill="#dd2509"/>
        <path id="Path_67992" data-name="Path 67992" d="M243.425,131.031v24.954l-21.656,12.5V143.508Z" transform="translate(-5.205 -1.319)" fill="#d8210b"/>
        <path id="Path_67993" data-name="Path 67993" d="M284.246,131.059v24.954l-21.656,12.5V143.536Z" transform="translate(-2.713 -1.317)" fill="#d9220b"/>
        <path id="Path_67994" data-name="Path 67994" d="M161.782,131.031v24.954l-21.656,12.5V143.508Z" transform="translate(-10.187 -1.319)" fill="#e02f0a"/>
        <path id="Path_67995" data-name="Path 67995" d="M120.961,131.089v24.953L99.3,168.547V143.565Z" transform="translate(-12.679 -1.315)" fill="#e2380e"/>
        <path id="Path_67996" data-name="Path 67996" d="M80.139,131.117v24.953L58.483,168.576V143.595Z" transform="translate(-15.17 -1.313)" fill="#e44011"/>
        <path id="Path_68003" data-name="Path 68003" d="M629.982,25.4V50.349l21.656,12.5V37.873Z" transform="translate(27.724 -17.784)" fill="#e33d0f"/>
        <path id="Path_68006" data-name="Path 68006" d="M589.16,25.425V50.379l21.656,12.5V37.9Z" transform="translate(17.218 -7.764)" fill="#e23a0e"/>
        <path id="Path_68007" data-name="Path 68007" d="M548.339,25.482V50.436l21.656,12.5V37.959Z" transform="translate(14.727 -7.761)" fill="#e2390e"/>
        <path id="Path_68008" data-name="Path 68008" d="M507.518,25.511V50.465l21.656,12.5V37.988Z" transform="translate(12.235 -7.759)" fill="#e2370e"/>
        <path id="Path_68009" data-name="Path 68009" d="M385.054,25.439V50.393L406.71,62.9V37.916Z" transform="translate(4.761 -7.763)" fill="#df290a"/>
        <path id="Path_68010" data-name="Path 68010" d="M425.875,25.468V50.422l21.656,12.5V37.945Z" transform="translate(7.253 -7.761)" fill="#e0300b"/>
        <path id="Path_68011" data-name="Path 68011" d="M466.7,25.5V50.45l21.656,12.5V37.974Z" transform="translate(9.744 -7.76)" fill="#e1350c"/>
        <path id="Path_68012" data-name="Path 68012" d="M344.232,25.468V50.422l21.656,12.5V37.945Z" transform="translate(2.27 -7.761)" fill="#df2709"/>
        <path id="Path_68013" data-name="Path 68013" d="M303.411,25.526V50.48l21.656,12.5V38Z" transform="translate(-0.222 -7.758)" fill="#df280a"/>
        <path id="Path_68014" data-name="Path 68014" d="M262.59,25.555V50.509l21.656,12.5V38.032Z" transform="translate(-2.713 -7.756)" fill="#e02d0b"/>
        <path id="Path_68015" data-name="Path 68015" d="M140.126,25.526V50.48l21.656,12.5V38Z" transform="translate(-10.187 -7.758)" fill="#e2390d"/>
        <path id="Path_68016" data-name="Path 68016" d="M180.947,25.555V50.509l21.656,12.5V38.032Z" transform="translate(-7.696 -7.756)" fill="#e1360d"/>
        <path id="Path_68017" data-name="Path 68017" d="M221.768,25.583V50.537l21.656,12.5V38.06Z" transform="translate(-5.205 -7.754)" fill="#e1330c"/>
        <path id="Path_68018" data-name="Path 68018" d="M99.3,25.555V50.509l21.656,12.5V38.032Z" transform="translate(-12.679 -7.756)" fill="#e33d0d"/>
        <path id="Path_68019" data-name="Path 68019" d="M58.483,25.612V50.566L80.139,63.071V38.089Z" transform="translate(-15.17 -7.753)" fill="#e64a0e"/>
        <path id="Path_68020" data-name="Path 68020" d="M17.662,25.641V50.595L39.318,63.1V38.118Z" transform="translate(-17.662 -7.751)" fill="#eb6012"/>
        <path id="Path_68027" data-name="Path 68027" d="M650.392,60.6V85.549l21.657,12.505V73.072Z" transform="translate(20.955 -5.618)" fill="#e54610"/>
        <path id="Path_68030" data-name="Path 68030" d="M609.57,60.624V85.578l21.657,12.505V73.1Z" transform="translate(18.464 -5.616)" fill="#e5440f"/>
        <path id="Path_68031" data-name="Path 68031" d="M568.749,60.682V85.635l21.657,12.5V73.158Z" transform="translate(15.973 -5.612)" fill="#e4400e"/>
        <path id="Path_68032" data-name="Path 68032" d="M527.928,60.711V85.664l21.657,12.5V73.188Z" transform="translate(13.481 -5.61)" fill="#e33d0e"/>
        <path id="Path_68033" data-name="Path 68033" d="M405.464,60.638V85.593l21.657,12.5V73.116Z" transform="translate(6.007 -5.615)" fill="#e0310b"/>
        <path id="Path_68034" data-name="Path 68034" d="M446.285,60.667V85.621l21.657,12.5V73.144Z" transform="translate(8.498 -5.613)" fill="#e2370c"/>
        <path id="Path_68035" data-name="Path 68035" d="M487.107,60.7V85.65l21.657,12.5V73.173Z" transform="translate(10.99 -5.611)" fill="#e23b0d"/>
        <path id="Path_68036" data-name="Path 68036" d="M364.643,60.667V85.621l21.657,12.5V73.144Z" transform="translate(3.515 -5.613)" fill="#df2b0a"/>
        <path id="Path_68037" data-name="Path 68037" d="M323.821,60.725V85.679l21.656,12.505V73.2Z" transform="translate(1.024 -5.61)" fill="#df2a0a"/>
        <path id="Path_68038" data-name="Path 68038" d="M283,60.754V85.708l21.656,12.5V73.231Z" transform="translate(-1.467 -5.608)" fill="#e02e0b"/>
        <path id="Path_68039" data-name="Path 68039" d="M160.536,60.725V85.679l21.656,12.505V73.2Z" transform="translate(-8.942 -5.61)" fill="#e33c0e"/>
        <path id="Path_68040" data-name="Path 68040" d="M201.357,60.754V85.708l21.656,12.5V73.231Z" transform="translate(-6.45 -5.608)" fill="#e1350d"/>
        <path id="Path_68041" data-name="Path 68041" d="M242.179,60.783V85.736l21.656,12.505V73.26Z" transform="translate(-3.959 -5.606)" fill="#e0310c"/>
        <path id="Path_68042" data-name="Path 68042" d="M119.715,60.754V85.708l21.656,12.5V73.231Z" transform="translate(-11.433 -5.608)" fill="#e5450f"/>
        <path id="Path_68043" data-name="Path 68043" d="M78.894,60.812V85.766l21.656,12.5V73.289Z" transform="translate(-13.925 -5.604)" fill="#e74e10"/>
        <path id="Path_68044" data-name="Path 68044" d="M38.072,60.841V85.795L59.729,98.3V73.318Z" transform="translate(-16.416 -5.603)" fill="#ea5d12"/>
        <path id="Path_68051" data-name="Path 68051" d="M629.982,95.672v24.954l21.656,12.5V108.149Z" transform="translate(19.71 -3.477)" fill="#e75211"/>
        <path id="Path_68052" data-name="Path 68052" d="M670.8,95.7v24.953l21.656,12.5V108.178Z" transform="translate(40.233 -9.486)" fill="#e74f12"/>
        <path id="Path_68054" data-name="Path 68054" d="M589.16,95.7v24.953l21.656,12.5V108.178Z" transform="translate(17.218 -3.475)" fill="#e64d10"/>
        <path id="Path_68055" data-name="Path 68055" d="M548.339,95.759v24.954l21.656,12.5V108.236Z" transform="translate(14.727 -3.471)" fill="#e5460e"/>
        <path id="Path_68056" data-name="Path 68056" d="M507.518,95.788v24.954l21.656,12.5V108.265Z" transform="translate(12.235 -3.47)" fill="#e4420e"/>
        <path id="Path_68057" data-name="Path 68057" d="M385.054,95.716V120.67l21.656,12.5V108.193Z" transform="translate(4.761 -3.474)" fill="#e1360c"/>
        <path id="Path_68058" data-name="Path 68058" d="M425.875,95.745V120.7L447.531,133.2V108.222Z" transform="translate(7.253 -3.472)" fill="#e33d0c"/>
        <path id="Path_68059" data-name="Path 68059" d="M466.7,95.773v24.954l21.656,12.5V108.25Z" transform="translate(9.744 -3.47)" fill="#e4420e"/>
        <path id="Path_68060" data-name="Path 68060" d="M344.232,95.745V120.7L365.888,133.2V108.222Z" transform="translate(2.27 -3.472)" fill="#e0310b"/>
        <path id="Path_68061" data-name="Path 68061" d="M303.411,95.8v24.953l21.656,12.5V108.279Z" transform="translate(-0.222 -3.469)" fill="#e1320b"/>
        <path id="Path_68062" data-name="Path 68062" d="M262.59,95.831v24.953l21.656,12.5V108.308Z" transform="translate(-2.713 -3.467)" fill="#e1340c"/>
        <path id="Path_68063" data-name="Path 68063" d="M140.126,95.8v24.953l21.656,12.5V108.279Z" transform="translate(-10.187 -3.469)" fill="#e5460f"/>
        <path id="Path_68064" data-name="Path 68064" d="M180.947,95.831v24.953l21.656,12.5V108.308Z" transform="translate(-7.696 -3.467)" fill="#e2390e"/>
        <path id="Path_68065" data-name="Path 68065" d="M221.768,95.86v24.954l21.656,12.5V108.337Z" transform="translate(-5.205 -3.465)" fill="#e1350c"/>
        <path id="Path_68066" data-name="Path 68066" d="M99.3,95.831v24.953l21.656,12.5V108.308Z" transform="translate(-12.679 -3.467)" fill="#e75111"/>
        <path id="Path_68067" data-name="Path 68067" d="M58.483,95.889v24.954l21.656,12.5V108.366Z" transform="translate(-15.17 -3.463)" fill="#ea5b12"/>
        <path id="Path_68068" data-name="Path 68068" d="M17.662,95.918v24.954l21.656,12.5V108.395Z" transform="translate(-17.662 -3.462)" fill="#ec6513"/>
        <path id="Path_68075" data-name="Path 68075" d="M650.392,130.872v24.954l21.657,12.5V143.349Z" transform="translate(20.955 -1.328)" fill="#ea5c12"/>
        <path id="Path_68076" data-name="Path 68076" d="M691.213,130.9v24.954l21.657,12.5V143.378Z" transform="translate(53.501 -1.327)" fill="#e85412"/>
        <path id="Path_68078" data-name="Path 68078" d="M609.57,130.9v24.954l21.657,12.5V143.378Z" transform="translate(18.464 -1.327)" fill="#ea5b11"/>
        <path id="Path_68079" data-name="Path 68079" d="M568.749,130.958v24.954l21.657,12.505V143.435Z" transform="translate(15.973 -1.323)" fill="#e75110"/>
        <path id="Path_68080" data-name="Path 68080" d="M527.928,130.987v24.954l21.657,12.505V143.464Z" transform="translate(13.481 -1.321)" fill="#e6490f"/>
        <path id="Path_68081" data-name="Path 68081" d="M405.464,130.915v24.953l21.657,12.5V143.392Z" transform="translate(6.007 -1.326)" fill="#e4430d"/>
        <path id="Path_68082" data-name="Path 68082" d="M446.285,130.944V155.9l21.657,12.5V143.421Z" transform="translate(8.498 -1.324)" fill="#e5480e"/>
        <path id="Path_68083" data-name="Path 68083" d="M487.107,130.973v24.954l21.657,12.5V143.45Z" transform="translate(10.99 -1.322)" fill="#e6490e"/>
        <path id="Path_68084" data-name="Path 68084" d="M364.643,130.944V155.9L386.3,168.4V143.421Z" transform="translate(3.515 -1.324)" fill="#e33d0d"/>
        <path id="Path_68085" data-name="Path 68085" d="M323.821,131v24.954l21.656,12.5V143.479Z" transform="translate(1.024 -1.32)" fill="#e23a0d"/>
        <path id="Path_68086" data-name="Path 68086" d="M283,131.031v24.954l21.656,12.5V143.508Z" transform="translate(-1.467 -1.319)" fill="#e2380d"/>
        <path id="Path_68087" data-name="Path 68087" d="M160.536,131v24.954l21.656,12.5V143.479Z" transform="translate(-8.942 -1.32)" fill="#e33f0e"/>
        <path id="Path_68088" data-name="Path 68088" d="M201.357,131.031v24.954l21.656,12.5V143.508Z" transform="translate(-6.45 -1.319)" fill="#e1360d"/>
        <path id="Path_68089" data-name="Path 68089" d="M242.179,131.059v24.954l21.656,12.5V143.536Z" transform="translate(-3.959 -1.317)" fill="#e1360d"/>
        <path id="Path_68090" data-name="Path 68090" d="M119.715,131.031v24.954l21.656,12.5V143.508Z" transform="translate(-11.433 -1.319)" fill="#e64d10"/>
        <path id="Path_68091" data-name="Path 68091" d="M78.894,131.089v24.953l21.656,12.5V143.565Z" transform="translate(-13.925 -1.315)" fill="#e95911"/>
        <path id="Path_68092" data-name="Path 68092" d="M38.072,131.117v24.953l21.656,12.505V143.595Z" transform="translate(-16.416 -1.313)" fill="#eb6013"/>
        <path id="Path_68099" data-name="Path 68099" d="M651.637,38.6l21.657-12.477L651.637,13.553,629.982,26.119Z" transform="translate(27.724 -18.507)" fill="#e8560d"/>
        <path id="Path_68102" data-name="Path 68102" d="M610.816,38.624l21.657-12.477L610.816,13.581,589.16,26.148Z" transform="translate(17.218 -8.487)" fill="#e8530e"/>
        <path id="Path_68103" data-name="Path 68103" d="M569.995,38.682l21.657-12.477L569.995,13.639,548.339,26.205Z" transform="translate(14.727 -8.483)" fill="#e8520e"/>
        <path id="Path_68104" data-name="Path 68104" d="M529.174,38.711l21.657-12.477L529.174,13.668,507.518,26.234Z" transform="translate(12.235 -8.482)" fill="#e8520e"/>
        <path id="Path_68105" data-name="Path 68105" d="M406.71,38.639l21.657-12.477L406.71,13.6,385.054,26.162Z" transform="translate(4.761 -8.486)" fill="#e4430e"/>
        <path id="Path_68106" data-name="Path 68106" d="M447.531,38.667l21.657-12.476L447.531,13.625,425.875,26.191Z" transform="translate(7.253 -8.484)" fill="#e64a0e"/>
        <path id="Path_68107" data-name="Path 68107" d="M488.352,38.7,510.009,26.22,488.352,13.654,466.7,26.22Z" transform="translate(9.744 -8.482)" fill="#e7500e"/>
        <path id="Path_68108" data-name="Path 68108" d="M365.888,38.667l21.657-12.476L365.888,13.625,344.232,26.191Z" transform="translate(2.27 -8.484)" fill="#e33d0d"/>
        <path id="Path_68109" data-name="Path 68109" d="M325.067,38.726l21.656-12.477L325.067,13.683,303.411,26.249Z" transform="translate(-0.222 -8.481)" fill="#e33f0d"/>
        <path id="Path_68110" data-name="Path 68110" d="M284.246,38.754,305.9,26.277,284.246,13.711,262.59,26.277Z" transform="translate(-2.713 -8.479)" fill="#e4440d"/>
        <path id="Path_68111" data-name="Path 68111" d="M161.782,38.726l21.656-12.477L161.782,13.683,140.126,26.249Z" transform="translate(-10.187 -8.481)" fill="#e74f0e"/>
        <path id="Path_68112" data-name="Path 68112" d="M202.6,38.754,224.26,26.277,202.6,13.711,180.947,26.277Z" transform="translate(-7.696 -8.479)" fill="#e74f0e"/>
        <path id="Path_68113" data-name="Path 68113" d="M243.425,38.783l21.656-12.477L243.425,13.74,221.768,26.306Z" transform="translate(-5.205 -8.477)" fill="#e64b0e"/>
        <path id="Path_68114" data-name="Path 68114" d="M120.961,38.754l21.656-12.477L120.961,13.711,99.3,26.277Z" transform="translate(-12.679 -8.479)" fill="#e8520f"/>
        <path id="Path_68115" data-name="Path 68115" d="M80.139,38.812,101.8,26.335,80.139,13.769,58.483,26.335Z" transform="translate(-15.17 -8.475)" fill="#eb630e"/>
        <path id="Path_68116" data-name="Path 68116" d="M39.318,38.841,60.974,26.364,39.318,13.8,17.662,26.364Z" transform="translate(-17.662 -8.474)" fill="#f48210"/>
        <path id="Path_68123" data-name="Path 68123" d="M672.049,73.795,693.7,61.318,672.049,48.752,650.392,61.318Z" transform="translate(20.955 -6.34)" fill="#eb610e"/>
        <path id="Path_68126" data-name="Path 68126" d="M631.227,73.824l21.656-12.477L631.227,48.781,609.57,61.347Z" transform="translate(18.464 -6.339)" fill="#ea5d0d"/>
        <path id="Path_68127" data-name="Path 68127" d="M590.406,73.881,612.062,61.4,590.406,48.839,568.749,61.4Z" transform="translate(15.973 -6.335)" fill="#e9590e"/>
        <path id="Path_68128" data-name="Path 68128" d="M549.585,73.911l21.656-12.477L549.585,48.868,527.928,61.434Z" transform="translate(13.481 -6.333)" fill="#e9560e"/>
        <path id="Path_68129" data-name="Path 68129" d="M427.121,73.838l21.656-12.477L427.121,48.8,405.464,61.361Z" transform="translate(6.007 -6.338)" fill="#e5470e"/>
        <path id="Path_68130" data-name="Path 68130" d="M467.942,73.867,489.6,61.39,467.942,48.824,446.285,61.39Z" transform="translate(8.498 -6.336)" fill="#e74f0e"/>
        <path id="Path_68131" data-name="Path 68131" d="M508.764,73.9l21.656-12.477L508.764,48.853,487.107,61.419Z" transform="translate(10.99 -6.334)" fill="#e8540e"/>
        <path id="Path_68132" data-name="Path 68132" d="M386.3,73.867,407.955,61.39,386.3,48.824,364.643,61.39Z" transform="translate(3.515 -6.336)" fill="#e4400d"/>
        <path id="Path_68133" data-name="Path 68133" d="M345.478,73.925l21.656-12.477L345.478,48.882,323.821,61.448Z" transform="translate(1.024 -6.332)" fill="#e33f0d"/>
        <path id="Path_68134" data-name="Path 68134" d="M304.657,73.953l21.656-12.477L304.657,48.911,283,61.477Z" transform="translate(-1.467 -6.331)" fill="#e4430e"/>
        <path id="Path_68135" data-name="Path 68135" d="M182.193,73.925l21.656-12.477L182.193,48.882,160.536,61.448Z" transform="translate(-8.942 -6.332)" fill="#e8540f"/>
        <path id="Path_68136" data-name="Path 68136" d="M223.014,73.953,244.67,61.477,223.014,48.911,201.357,61.477Z" transform="translate(-6.45 -6.331)" fill="#e64d0e"/>
        <path id="Path_68137" data-name="Path 68137" d="M263.835,73.982l21.656-12.476L263.835,48.94,242.179,61.506Z" transform="translate(-3.959 -6.329)" fill="#e5480e"/>
        <path id="Path_68138" data-name="Path 68138" d="M141.371,73.953l21.656-12.477L141.371,48.911,119.715,61.477Z" transform="translate(-11.433 -6.331)" fill="#ea5d0e"/>
        <path id="Path_68139" data-name="Path 68139" d="M100.55,74.012l21.656-12.477L100.55,48.969,78.894,61.535Z" transform="translate(-13.925 -6.327)" fill="#ed6a0c"/>
        <path id="Path_68140" data-name="Path 68140" d="M59.729,74.041,81.385,61.564,59.729,49,38.072,61.564Z" transform="translate(-16.416 -6.325)" fill="#f3810f"/>
        <path id="Path_68147" data-name="Path 68147" d="M651.637,108.872,673.294,96.4,651.637,83.829,629.982,96.4Z" transform="translate(19.71 -4.199)" fill="#ef6f0b"/>
        <path id="Path_68148" data-name="Path 68148" d="M692.459,108.9l21.657-12.476L692.459,83.858,670.8,96.424Z" transform="translate(40.233 -10.208)" fill="#ee6c0d"/>
        <path id="Path_68150" data-name="Path 68150" d="M610.816,108.9l21.657-12.476L610.816,83.858,589.16,96.424Z" transform="translate(17.218 -4.198)" fill="#ee6b0b"/>
        <path id="Path_68151" data-name="Path 68151" d="M569.995,108.959l21.657-12.477L569.995,83.916,548.339,96.482Z" transform="translate(14.727 -4.194)" fill="#eb630c"/>
        <path id="Path_68152" data-name="Path 68152" d="M529.174,108.988l21.657-12.477L529.174,83.945,507.518,96.511Z" transform="translate(12.235 -4.192)" fill="#ea5e0e"/>
        <path id="Path_68153" data-name="Path 68153" d="M406.71,108.916l21.657-12.477L406.71,83.872,385.054,96.439Z" transform="translate(4.761 -4.197)" fill="#e64b0e"/>
        <path id="Path_68154" data-name="Path 68154" d="M447.531,108.944l21.657-12.477L447.531,83.9,425.875,96.467Z" transform="translate(7.253 -4.195)" fill="#e8560e"/>
        <path id="Path_68155" data-name="Path 68155" d="M488.352,108.973,510.009,96.5,488.352,83.93,466.7,96.5Z" transform="translate(9.744 -4.193)" fill="#ea5c0e"/>
        <path id="Path_68156" data-name="Path 68156" d="M365.888,108.944l21.657-12.477L365.888,83.9,344.232,96.467Z" transform="translate(2.27 -4.195)" fill="#e5450e"/>
        <path id="Path_68157" data-name="Path 68157" d="M325.067,109l21.656-12.476L325.067,83.959,303.411,96.525Z" transform="translate(-0.222 -4.192)" fill="#e5460e"/>
        <path id="Path_68158" data-name="Path 68158" d="M284.246,109.031,305.9,96.554,284.246,83.988,262.59,96.554Z" transform="translate(-2.713 -4.19)" fill="#e5490e"/>
        <path id="Path_68159" data-name="Path 68159" d="M161.782,109l21.656-12.476L161.782,83.959,140.126,96.525Z" transform="translate(-10.187 -4.192)" fill="#eb610d"/>
        <path id="Path_68160" data-name="Path 68160" d="M202.6,109.031,224.26,96.554,202.6,83.988,180.947,96.554Z" transform="translate(-7.696 -4.19)" fill="#e8530f"/>
        <path id="Path_68161" data-name="Path 68161" d="M243.425,109.06l21.656-12.477L243.425,84.017,221.768,96.583Z" transform="translate(-5.205 -4.188)" fill="#e64c0e"/>
        <path id="Path_68162" data-name="Path 68162" d="M120.961,109.031l21.656-12.477L120.961,83.988,99.3,96.554Z" transform="translate(-12.679 -4.19)" fill="#ef710b"/>
        <path id="Path_68163" data-name="Path 68163" d="M80.139,109.089,101.8,96.612,80.139,84.046,58.483,96.612Z" transform="translate(-15.17 -4.186)" fill="#f4810e"/>
        <path id="Path_68164" data-name="Path 68164" d="M39.318,109.118,60.974,96.641,39.318,84.075,17.662,96.641Z" transform="translate(-17.662 -4.184)" fill="#f99313"/>
        <path id="Path_68171" data-name="Path 68171" d="M672.049,144.072,693.7,131.595l-21.656-12.566-21.657,12.566Z" transform="translate(20.955 -2.051)" fill="#f37f0f"/>
        <path id="Path_68172" data-name="Path 68172" d="M712.87,144.1l21.656-12.477L712.87,119.058l-21.657,12.566Z" transform="translate(53.501 -2.049)" fill="#f0750d"/>
        <path id="Path_68174" data-name="Path 68174" d="M631.227,144.1l21.656-12.477-21.656-12.566L609.57,131.624Z" transform="translate(18.464 -2.049)" fill="#f3800e"/>
        <path id="Path_68175" data-name="Path 68175" d="M590.406,144.158l21.656-12.477-21.656-12.566-21.657,12.566Z" transform="translate(15.973 -2.046)" fill="#f0750c"/>
        <path id="Path_68176" data-name="Path 68176" d="M549.585,144.187l21.656-12.477-21.656-12.566L527.928,131.71Z" transform="translate(13.481 -2.044)" fill="#ed690b"/>
        <path id="Path_68177" data-name="Path 68177" d="M427.121,144.115l21.656-12.477-21.656-12.566-21.657,12.566Z" transform="translate(6.007 -2.048)" fill="#ea5e0e"/>
        <path id="Path_68178" data-name="Path 68178" d="M467.942,144.144,489.6,131.667,467.942,119.1l-21.657,12.566Z" transform="translate(8.498 -2.047)" fill="#ec650b"/>
        <path id="Path_68179" data-name="Path 68179" d="M508.764,144.173,530.419,131.7,508.764,119.13,487.107,131.7Z" transform="translate(10.99 -2.045)" fill="#ec650c"/>
        <path id="Path_68180" data-name="Path 68180" d="M386.3,144.144l21.656-12.477L386.3,119.1l-21.657,12.566Z" transform="translate(3.515 -2.047)" fill="#e8540e"/>
        <path id="Path_68181" data-name="Path 68181" d="M345.478,144.2l21.656-12.477-21.656-12.566-21.656,12.566Z" transform="translate(1.024 -2.043)" fill="#e74f0e"/>
        <path id="Path_68182" data-name="Path 68182" d="M304.657,144.23l21.656-12.477-21.656-12.566L283,131.753Z" transform="translate(-1.467 -2.041)" fill="#e74f0e"/>
        <path id="Path_68183" data-name="Path 68183" d="M182.193,144.2l21.656-12.477-21.656-12.566-21.656,12.566Z" transform="translate(-8.942 -2.043)" fill="#ea5c0f"/>
        <path id="Path_68184" data-name="Path 68184" d="M223.014,144.23l21.656-12.477-21.656-12.566-21.656,12.566Z" transform="translate(-6.45 -2.041)" fill="#e7500e"/>
        <path id="Path_68185" data-name="Path 68185" d="M263.835,144.259l21.656-12.477-21.656-12.566-21.656,12.566Z" transform="translate(-3.959 -2.04)" fill="#e74e0e"/>
        <path id="Path_68186" data-name="Path 68186" d="M141.371,144.23l21.656-12.477-21.656-12.566-21.656,12.566Z" transform="translate(-11.433 -2.041)" fill="#ef700b"/>
        <path id="Path_68187" data-name="Path 68187" d="M100.55,144.288l21.656-12.476L100.55,119.245,78.894,131.812Z" transform="translate(-13.925 -2.038)" fill="#f4820d"/>
        <path id="Path_68188" data-name="Path 68188" d="M59.729,144.317,81.385,131.84,59.729,119.274,38.072,131.84Z" transform="translate(-16.416 -2.036)" fill="#f78c0f"/>
      </g>
      <text id="CAREER_CONNECT" data-name="CAREER CONNECT" transform="translate(471 72)" fill="#fff" font-size="40" font-family="HeliaCore-Bold, Helia Core" font-weight="700"><tspan x="0" y="0">CAREER CONNECT</tspan></text>
    </g>
    <g id="AUT-logo" transform="translate(395.109 88.667)">
      <g id="Vector_Smart_Object" data-name="Vector Smart Object" transform="translate(-89.237 -88.667)">
        <rect id="Rectangle_149" data-name="Rectangle 149" width="134.861" height="134"/>
        <g id="Group_1074" data-name="Group 1074" transform="translate(19.975 62.559)">
          <path id="Path_18215" data-name="Path 18215" d="M96.645,228.785l.613,3.285h-1.23Zm3.409,5.6L96.7,216.453h-.107L93.237,234.39Z" transform="translate(-80.59 -203.278)" fill="#fff"/>
          <path id="Path_18216" data-name="Path 18216" d="M79.213,223.7l-1.385-7.181H68.466L67.084,223.7H59.412L69,181.117h8.62L87.2,223.7Zm.667-43.088a2.318,2.318,0,0,0-2.261-1.812H69a2.312,2.312,0,0,0-2.263,1.812l-9.585,42.579a2.319,2.319,0,0,0,2.263,2.828h7.67a2.318,2.318,0,0,0,2.28-1.882l1.021-5.3H75.91l1.024,5.3a2.317,2.317,0,0,0,2.278,1.882l7.989,0a2.323,2.323,0,0,0,2.263-2.831Z" transform="translate(-57.091 -178.798)" fill="#fff"/>
          <path id="Path_18217" data-name="Path 18217" d="M182.557,217.041,175.9,223.7H165.258l-6.652-6.658V181.117h7.982v35.4h7.987v-35.4h7.982Zm0-38.243h-7.982a2.319,2.319,0,0,0-2.321,2.319V214.2h-3.346V181.117a2.322,2.322,0,0,0-2.321-2.319h-7.977a2.319,2.319,0,0,0-2.323,2.319v35.926a2.312,2.312,0,0,0,.681,1.637l6.65,6.657a2.316,2.316,0,0,0,1.639.679l10.652,0a2.309,2.309,0,0,0,1.642-.682l6.651-6.657a2.328,2.328,0,0,0,.676-1.637V181.117a2.317,2.317,0,0,0-2.318-2.319" transform="translate(-121.579 -178.798)" fill="#fff"/>
          <path id="Path_18218" data-name="Path 18218" d="M272.908,188.3h-7.977V223.7h-7.987V188.3h-7.986v-7.187h23.95Zm1.639-8.828a2.336,2.336,0,0,0-1.64-.679H248.958a2.32,2.32,0,0,0-2.321,2.32V188.3a2.322,2.322,0,0,0,2.321,2.321h5.668V223.7a2.322,2.322,0,0,0,2.319,2.318h7.987a2.325,2.325,0,0,0,2.321-2.318V190.621h5.655a2.319,2.319,0,0,0,2.321-2.318v-7.186a2.338,2.338,0,0,0-.681-1.64" transform="translate(-180.317 -178.797)" fill="#fff"/>
        </g>
      </g>
    </g>
  </g>
</svg>
