<svg xmlns="http://www.w3.org/2000/svg" width="95.87" height="95.87" viewBox="0 0 95.87 95.87">
  <g id="feedback_but" transform="translate(-249 -327.217)">
    <path id="btn-bg" d="M7,0H88.87a7,7,0,0,1,7,7V88.87a7,7,0,0,1-7,7H7a7,7,0,0,1-7-7V7A7,7,0,0,1,7,0Z" transform="translate(249 327.217)" fill="#d4e5ef"/>
    <g id="Group_2419" data-name="Group 2419" transform="translate(20 186.278)">
      <path id="Path_70610" data-name="Path 70610" d="M291.462,177.748V169.9a3.9,3.9,0,0,0-3.9-3.9H249.9a3.9,3.9,0,0,0-3.9,3.9V193.71a3.9,3.9,0,0,0,3.9,3.9h5.2v6.224a1.136,1.136,0,0,0,1.137,1.137l7.807-7.36h23.529a3.894,3.894,0,0,0,3.889-3.753H283.4v-8.091Zm-38.967,1.674h16.821v3.464H252.495Zm28.595,10.391H252.495V186.35h28.595Zm0-13.855H252.495v-3.464h28.595Z" fill="#41575f"/>
      <path id="Path_70611" data-name="Path 70611" d="M372.2,193.739l12.868-12.789,5.368,5.368-12.788,12.869H372.2Zm22.184-14.21a2.151,2.151,0,0,1,.552,1.46,1.874,1.874,0,0,1-.552,1.381l-2.215,2.211-5.368-5.368L389.013,177a1.874,1.874,0,0,1,1.381-.552,2.152,2.152,0,0,1,1.461.552Z" transform="translate(-86.933 -7.198)" fill="#41575f"/>
    </g>
    <g id="Group_2420" data-name="Group 2420" transform="translate(-59.876 -96)">
      <path id="Path_70612" data-name="Path 70612" d="M5.916-8.34H.876V0H2.34V-3.48H4.92V-4.848H2.34V-6.96H5.916Zm6.108,0H7V0h5.148V-1.38H8.46V-3.648h2.52V-5.016H8.46V-6.96h3.564Zm6.48,0H13.476V0h5.148V-1.38H14.94V-3.648h2.52V-5.016H14.94V-6.96H18.5Zm4.044,0H19.956V0h2.6C25.128,0,26.2-1.152,26.2-4.2,26.2-7.2,25.08-8.34,22.548-8.34ZM22.524-7c1.584,0,2.184.684,2.184,2.8,0,2.28-.66,2.82-2.34,2.82H21.42V-7ZM30.408-8.34H27.66V0h2.712C32.4,0,33.4-.66,33.4-2.376A1.957,1.957,0,0,0,32.28-4.428a1.691,1.691,0,0,0,.7-1.548C32.976-7.7,32.34-8.34,30.408-8.34Zm.312,4.68A1.025,1.025,0,0,1,31.9-2.5c0,.84-.444,1.128-1.5,1.128H29.124V-3.66Zm-.36-3.324c.876,0,1.152.288,1.152,1.044,0,.576-.216.972-.876.972H29.124V-6.984Zm8.016-1.4H36.708L34.02,0h1.5l.636-2.04h2.652L39.444,0H41Zm-.888,1.476L38.52-3.336H36.432Zm7.572-1.6c-2.016,0-3.372,1.008-3.372,4.3,0,3.408,1.4,4.368,3.384,4.368a4.167,4.167,0,0,0,2.76-.9l-.5-1.236a3.444,3.444,0,0,1-2.1.7c-1.152,0-1.992-.708-1.992-2.892,0-2.4.816-2.928,1.98-2.928a3.053,3.053,0,0,1,1.848.588l.588-1.212A4.1,4.1,0,0,0,45.06-8.508Zm10.212.168h-1.74L50.8-4.92h-.132V-8.328H49.212V0h1.452V-3.792h.12L53.748,0h1.764L52.128-4.392Z" transform="translate(329 501)" fill="#536972"/>
    </g>
  </g>
</svg>
