<svg xmlns="http://www.w3.org/2000/svg" width="200" height="200" viewBox="0 0 200 200"><defs><style>.a{fill:#d4e5ef;}.b,.c{fill:#536972;}.c{font-size:24px;font-family:HeliaCore-Book, Helia Core;}</style></defs><g transform="translate(-1000)"><rect class="a" width="200" height="200" transform="translate(1000)"/><g transform="translate(1026 40)"><path class="b" d="M54.346,19.679a25.728,25.728,0,0,1,13.22,3.564A26.518,26.518,0,0,1,77.222,32.9a25.728,25.728,0,0,1,3.564,13.22v6.667A10.99,10.99,0,0,1,69.75,63.821H3.536A10.642,10.642,0,0,1-4.281,60.6,10.642,10.642,0,0,1-7.5,52.786V46.118A25.728,25.728,0,0,1-3.936,32.9,26.518,26.518,0,0,1,5.72,23.242a25.728,25.728,0,0,1,13.22-3.564h1.839C25.99,22.131,32.519,40.988,37,40.988s10.3-18.857,15.507-21.31Zm59.547,0a25.747,25.747,0,0,1,25.75,25.75,10.99,10.99,0,0,1-11.036,11.036H87.913l.23-10.346a31.993,31.993,0,0,0-2.414-12.3,36.631,36.631,0,0,0-6.782-10.691,26.17,26.17,0,0,1,12.875-3.449h.92c3.525,1.226,6.9,13.839,10.116,13.839s6.591-12.613,10.116-13.839Z" transform="translate(7.5 35.679)"/><path class="b" d="M118.97,118.6c-10.892,0-20.656,5.528-21.677,16.579-.537,5.77.738,19.415,3.573,24.582,2.475,4.52,8.236,8.859,14.629,10.342a23.509,23.509,0,0,0,3.475.348,23.454,23.454,0,0,0,3.479-.348c6.388-1.483,12.154-5.823,14.629-10.342,2.832-5.167,4.11-18.812,3.577-24.582C139.631,124.127,129.866,118.6,118.97,118.6Z" transform="translate(-74.174 -118.599)"/><path class="b" d="M114.6,118.6c-8.708,0-16.514,4.419-17.33,13.255-.429,4.613.59,15.522,2.857,19.653,1.979,3.613,6.585,7.083,11.7,8.269a14.011,14.011,0,0,0,5.559,0c5.107-1.186,9.717-4.655,11.7-8.269,2.264-4.131,3.286-15.04,2.86-19.653C131.117,123.018,123.311,118.6,114.6,118.6Z" transform="translate(-4.174 -108.56)"/></g><text class="c" transform="translate(1099 180)"><tspan x="-43.824" y="0">FRIENDS</tspan></text></g></svg>