<svg xmlns="http://www.w3.org/2000/svg" width="60" height="60" viewBox="0 0 60 60"><defs><style>.a{fill:#d4e5ef;}.b,.c{fill:#536972;}.c{font-size:9px;font-family:HeliaCore-Book, Helia Core;}</style></defs><g transform="translate(-300)"><rect class="a" width="60" height="60" transform="translate(300)"/><g transform="translate(307.8 12)"><path class="b" d="M11.054,19.679a7.718,7.718,0,0,1,3.966,1.069,7.955,7.955,0,0,1,2.9,2.9,7.718,7.718,0,0,1,1.069,3.966v2a3.3,3.3,0,0,1-3.311,3.311H-4.189a3.193,3.193,0,0,1-2.345-.966A3.193,3.193,0,0,1-7.5,29.611v-2a7.718,7.718,0,0,1,1.069-3.966,7.955,7.955,0,0,1,2.9-2.9A7.718,7.718,0,0,1,.432,19.679H.984c1.563.736,3.522,6.393,4.866,6.393s3.089-5.657,4.652-6.393Zm17.864,0A7.724,7.724,0,0,1,36.643,27.4a3.3,3.3,0,0,1-3.311,3.311H21.124l.069-3.1a9.6,9.6,0,0,0-.724-3.69,10.989,10.989,0,0,0-2.035-3.207A7.851,7.851,0,0,1,22.3,19.679h.276c1.058.368,2.069,4.152,3.035,4.152s1.977-3.784,3.035-4.152Z" transform="translate(7.5 -3.071)"/><path class="b" d="M103.713,118.6c-3.267,0-6.2,1.658-6.5,4.974-.161,1.731.221,5.824,1.072,7.375a6.218,6.218,0,0,0,10.863,0c.849-1.55,1.233-5.644,1.073-7.375C109.911,120.257,106.981,118.6,103.713,118.6Z" transform="translate(-90.274 -118.599)"/><path class="b" d="M102.4,118.6c-2.612,0-4.954,1.326-5.2,3.976a14.561,14.561,0,0,0,.857,5.9,4.972,4.972,0,0,0,8.685,0,14.6,14.6,0,0,0,.858-5.9C107.357,119.925,105.015,118.6,102.4,118.6Z" transform="translate(-69.274 -115.587)"/></g><text class="c" transform="translate(330 54.4)"><tspan x="-16.434" y="0">FRIENDS</tspan></text></g></svg>