<svg xmlns="http://www.w3.org/2000/svg" width="118" height="118" viewBox="0 0 118 118"><defs><style>.a{fill:#536972;}.b,.c{fill:#d4e5ef;}.c{font-size:14px;font-family:HeliaCore-Bold, Helia Core;font-weight:700;}</style></defs><g transform="translate(-281 -151)"><rect class="a" width="118" height="118" transform="translate(281 151)"/><g transform="translate(295.6 169)"><path class="b" d="M29.608,19.679a15.437,15.437,0,0,1,7.932,2.138,15.911,15.911,0,0,1,5.794,5.794,15.437,15.437,0,0,1,2.138,7.932v4a6.594,6.594,0,0,1-6.621,6.621H-.879a6.385,6.385,0,0,1-4.69-1.931A6.385,6.385,0,0,1-7.5,39.543v-4A15.437,15.437,0,0,1-5.362,27.61,15.911,15.911,0,0,1,.432,21.817a15.437,15.437,0,0,1,7.932-2.138h1.1c3.127,1.471,7.044,12.786,9.733,12.786s6.177-11.314,9.3-12.786Zm35.728,0a15.448,15.448,0,0,1,15.45,15.45,6.594,6.594,0,0,1-6.621,6.621H49.748l.138-6.208a19.2,19.2,0,0,0-1.448-7.38,21.979,21.979,0,0,0-4.069-6.415,15.7,15.7,0,0,1,7.725-2.069h.552c2.115.736,4.138,8.3,6.07,8.3s3.954-7.568,6.07-8.3Z" transform="translate(7.5 13.536)"/><path class="b" d="M110.252,118.6c-6.535,0-12.394,3.317-13.006,9.947-.322,3.462.443,11.649,2.144,14.749a12.795,12.795,0,0,0,10.862,6.415,12.794,12.794,0,0,0,10.865-6.415c1.7-3.1,2.466-11.287,2.146-14.749C122.648,121.916,116.789,118.6,110.252,118.6Z" transform="translate(-83.374 -118.599)"/><path class="b" d="M107.629,118.6c-5.225,0-9.909,2.652-10.4,7.953-.258,2.768.354,9.313,1.714,11.792a10.229,10.229,0,0,0,8.684,5.128,10.229,10.229,0,0,0,8.686-5.128c1.358-2.479,1.971-9.024,1.716-11.792C117.54,121.251,112.856,118.6,107.629,118.6Z" transform="translate(-41.374 -112.576)"/></g><text class="c" transform="translate(338.4 250.4)"><tspan x="-26.299" y="0">FRIENDS</tspan></text></g></svg>