<svg xmlns="http://www.w3.org/2000/svg" width="259.563" height="81.232" viewBox="0 0 259.563 81.232"><defs><style>.a,.b{fill:#536972;}.a{font-size:31px;font-family:HeliaCore-Book, Helia Core;}</style></defs><text class="a" transform="translate(173.563 50.48)"><tspan x="-85.266" y="0">PRINT LABEL</tspan></text><path class="b" d="M51.078-4.538A9.812,9.812,0,0,1,58.3-1.6a9.812,9.812,0,0,1,2.935,7.219v17.77a2.444,2.444,0,0,1-2.539,2.539H51.078V41.155A5.148,5.148,0,0,1,46,46.232H-4.769a4.879,4.879,0,0,1-3.57-1.507,4.879,4.879,0,0,1-1.507-3.57V25.924h-7.616a2.471,2.471,0,0,1-1.825-.714A2.471,2.471,0,0,1-20,23.386V5.616A9.812,9.812,0,0,1-17.065-1.6,9.812,9.812,0,0,1-9.846-4.538V-29.923a4.879,4.879,0,0,1,1.507-3.57A4.879,4.879,0,0,1-4.769-35H38.862a4.748,4.748,0,0,1,3.49,1.428l7.3,7.3a4.748,4.748,0,0,1,1.428,3.49ZM40.924,36.078V20.847H.308V36.078Zm0-35.539V-14.692H33.309a2.471,2.471,0,0,1-1.825-.714,2.471,2.471,0,0,1-.714-1.825v-7.616H.308V.539ZM48.54,11.962a3.792,3.792,0,0,0,3.808-3.808,3.808,3.808,0,1,0-7.616,0,3.792,3.792,0,0,0,3.808,3.808Z" transform="translate(20 35)"/></svg>