<svg xmlns="http://www.w3.org/2000/svg" width="60" height="60" viewBox="0 0 60 60"><defs><style>.a{fill:#d4e5ef;}.b,.c{fill:#536972;}.c{font-size:9px;font-family:HeliaCore-Book, Helia Core;}</style></defs><rect class="a" width="60" height="60"/><path class="b" d="M23.574,7.721a.844.844,0,0,0-.249-.622L11.637-2.476a.827.827,0,0,0-.5-.187.827.827,0,0,0-.5.187L-1.047,7.1a.844.844,0,0,0-.249.622v8.891A1.439,1.439,0,0,0-.86,17.668,1.439,1.439,0,0,0,.2,18.1H7.409a.743.743,0,0,0,.746-.746V10.394A.743.743,0,0,1,8.9,9.648h4.476a.743.743,0,0,1,.746.746v6.963a.743.743,0,0,0,.746.746h7.212a1.486,1.486,0,0,0,1.492-1.492ZM28.8,3.928a.789.789,0,0,1,.218.5.773.773,0,0,1-.155.56L27.3,6.912a.591.591,0,0,1-.5.249.909.909,0,0,1-.56-.187l-14.611-12a.827.827,0,0,0-.5-.187.827.827,0,0,0-.5.187l-14.611,12a.909.909,0,0,1-.56.187.591.591,0,0,1-.5-.249L-6.58,4.985a.773.773,0,0,1-.155-.56.789.789,0,0,1,.218-.5L9.274-9.066a2.8,2.8,0,0,1,1.865-.684,3.046,3.046,0,0,1,1.927.684l5.533,4.6V-9a.719.719,0,0,1,.218-.528.72.72,0,0,1,.528-.218h3.482a.719.719,0,0,1,.528.218A.719.719,0,0,1,23.574-9V-.362Z" transform="translate(18.74 20.671)"/><text class="c" transform="translate(30 54.4)"><tspan x="-12.042" y="0">HOME</tspan></text></svg>