<svg xmlns="http://www.w3.org/2000/svg" width="43.649" height="34" viewBox="0 0 43.649 34">
  <path id="home_icon" d="M30.263,11.576a1.03,1.03,0,0,0-.3-.759L15.692-.871a1.009,1.009,0,0,0-.607-.228,1.009,1.009,0,0,0-.607.228L.21,10.817a1.03,1.03,0,0,0-.3.759V22.429a1.757,1.757,0,0,0,.531,1.29,1.757,1.757,0,0,0,1.29.531h8.8a.907.907,0,0,0,.911-.911v-8.5a.907.907,0,0,1,.911-.911h5.464a.907.907,0,0,1,.911.911v8.5a.907.907,0,0,0,.911.911h8.8a1.814,1.814,0,0,0,1.821-1.821Zm6.375-4.629a.963.963,0,0,1,.266.607.944.944,0,0,1-.19.683l-1.9,2.353a.721.721,0,0,1-.607.3,1.11,1.11,0,0,1-.683-.228L15.692-3.982a1.009,1.009,0,0,0-.607-.228,1.009,1.009,0,0,0-.607.228L-3.357,10.665a1.11,1.11,0,0,1-.683.228.721.721,0,0,1-.607-.3l-1.9-2.353a.944.944,0,0,1-.19-.683.963.963,0,0,1,.266-.607L12.808-8.915a3.421,3.421,0,0,1,2.277-.835,3.718,3.718,0,0,1,2.353.835L24.192-3.3v-5.54a.878.878,0,0,1,.266-.645A.878.878,0,0,1,25.1-9.75h4.25A.878.878,0,0,1,30-9.484a.878.878,0,0,1,.266.645V1.71Z" transform="translate(6.74 9.75)" fill="#8ea5ae"/>
</svg>
