<svg xmlns="http://www.w3.org/2000/svg" width="95.87" height="95.87" viewBox="0 0 95.87 95.87">
  <g id="home_but" transform="translate(-31 -218.217)">
    <path id="btn-bg" d="M7,0H88.87a7,7,0,0,1,7,7V88.87a7,7,0,0,1-7,7H7a7,7,0,0,1-7-7V7A7,7,0,0,1,7,0Z" transform="translate(31 218.217)" fill="#d4e5ef"/>
    <path id="Path_70604" data-name="Path 70604" d="M-9.342-8.34h-1.464v3.18h-3.216V-8.34h-1.464V0h1.464V-3.768h3.216V0h1.464Zm4.98-.168c-2.5,0-3.516,1.056-3.516,4.284,0,3.2,1.02,4.392,3.516,4.392S-.8-1.02-.8-4.224C-.8-7.452-1.866-8.508-4.362-8.508Zm0,1.38c1.5,0,2.04.672,2.04,2.928s-.528,3-2.04,3c-1.488,0-1.968-.744-1.968-3S-5.85-7.128-4.362-7.128ZM9.006-8.34H7.482l-2.6,5.88L2.25-8.34H.666V0H2.082V-5.52L4.374,0h1L7.578-5.472V0H9.006Zm6.78,0H10.758V0h5.148V-1.38H12.222V-3.648h2.52V-5.016h-2.52V-6.96h3.564Z" transform="translate(79 296)" fill="#536972"/>
    <path id="Path_7" data-name="Path 7" d="M36.71,15.872a1.252,1.252,0,0,0-.356-.912L19.6.918a1.066,1.066,0,0,0-1.426,0L1.42,14.961a1.252,1.252,0,0,0-.356.912V28.912a2.135,2.135,0,0,0,.624,1.55A2.039,2.039,0,0,0,3.2,31.1H13.54a1.02,1.02,0,0,0,.757-.319,1.068,1.068,0,0,0,.312-.775V19.793a1.068,1.068,0,0,1,.312-.775,1.02,1.02,0,0,1,.757-.319H22.1a1.02,1.02,0,0,1,.757.319,1.068,1.068,0,0,1,.312.775V30.006a1.068,1.068,0,0,0,.312.775,1.02,1.02,0,0,0,.757.319H34.571a2.039,2.039,0,0,0,1.515-.638,2.135,2.135,0,0,0,.624-1.55ZM44.2,10.31a1.17,1.17,0,0,1,.312.729,1.153,1.153,0,0,1-.223.821l-2.228,2.827a.841.841,0,0,1-.713.365,1.284,1.284,0,0,1-.8-.274L19.6-2.82a1.169,1.169,0,0,0-.713-.274,1.169,1.169,0,0,0-.713.274l-20.942,17.6a1.284,1.284,0,0,1-.8.274.841.841,0,0,1-.713-.365L-6.511,11.86a1.153,1.153,0,0,1-.223-.821,1.17,1.17,0,0,1,.312-.729L16.213-8.747a3.963,3.963,0,0,1,2.673-1,4.305,4.305,0,0,1,2.763,1L29.581-2V-8.656a1.068,1.068,0,0,1,.312-.775,1.02,1.02,0,0,1,.757-.319h4.99a1.02,1.02,0,0,1,.757.319,1.068,1.068,0,0,1,.312.775V4.019Z" transform="translate(59.74 247.767)" fill="#536972"/>
  </g>
</svg>
