<svg xmlns="http://www.w3.org/2000/svg" width="200" height="200" viewBox="0 0 200 200"><defs><style>.a{fill:#d4e5ef;}.b,.c{fill:#536972;}.c{font-size:24px;font-family:HeliaCore-Book, Helia Core;}</style></defs><rect class="a" width="200" height="200"/><path class="b" d="M94.306,48.485a2.812,2.812,0,0,0-.829-2.072L54.515,14.5a2.521,2.521,0,0,0-3.316,0L12.238,46.413a2.812,2.812,0,0,0-.829,2.072V78.121A4.953,4.953,0,0,0,16.383,83.1h24.04a2.477,2.477,0,0,0,2.487-2.487V57.4A2.477,2.477,0,0,1,45.4,54.91H60.318A2.477,2.477,0,0,1,62.805,57.4V80.608A2.477,2.477,0,0,0,65.292,83.1h24.04a4.953,4.953,0,0,0,4.974-4.974Zm17.408-12.642a2.63,2.63,0,0,1,.725,1.658,2.578,2.578,0,0,1-.518,1.865l-5.181,6.425a1.97,1.97,0,0,1-1.658.829A3.031,3.031,0,0,1,103.218,46L54.515,6A2.521,2.521,0,0,0,51.2,6L2.5,46a3.031,3.031,0,0,1-1.865.622,1.97,1.97,0,0,1-1.658-.829l-5.181-6.425A2.578,2.578,0,0,1-6.725,37.5,2.63,2.63,0,0,1-6,35.844L46.64-7.47a9.342,9.342,0,0,1,6.217-2.28,10.154,10.154,0,0,1,6.425,2.28L77.727,7.866V-7.263a2.4,2.4,0,0,1,.725-1.762,2.4,2.4,0,0,1,1.762-.725H91.819a2.4,2.4,0,0,1,1.762.725,2.4,2.4,0,0,1,.725,1.762V21.544Z" transform="translate(46.74 46.155)"/><text class="c" transform="translate(97 180)"><tspan x="-32.112" y="0">HOME</tspan></text></svg>