<svg xmlns="http://www.w3.org/2000/svg" width="118.5" height="118.5" viewBox="0 0 118.5 118.5"><defs><style>.a{fill:#536972;}.b,.c{fill:#d4e5ef;}.c{font-size:13px;font-family:HeliaCore-Bold, Helia Core;font-weight:700;}</style></defs><path class="a" d="M0,0H118.5V118.5H0Z"/><path class="b" d="M53.13,25.555a1.726,1.726,0,0,0-.491-1.256L29.554,4.95a1.469,1.469,0,0,0-1.965,0L4.5,24.3a1.726,1.726,0,0,0-.491,1.256V43.522a2.942,2.942,0,0,0,.86,2.136,2.81,2.81,0,0,0,2.087.879H21.2a1.4,1.4,0,0,0,1.044-.44,1.471,1.471,0,0,0,.43-1.068V30.958a1.471,1.471,0,0,1,.43-1.068,1.4,1.4,0,0,1,1.044-.44h8.841a1.4,1.4,0,0,1,1.044.44,1.471,1.471,0,0,1,.43,1.068V45.03A1.471,1.471,0,0,0,34.9,46.1a1.4,1.4,0,0,0,1.044.44H50.183a2.81,2.81,0,0,0,2.087-.879,2.942,2.942,0,0,0,.86-2.136Zm10.315-7.664a1.612,1.612,0,0,1,.43,1.005,1.589,1.589,0,0,1-.307,1.131L60.5,23.922a1.158,1.158,0,0,1-.982.5,1.769,1.769,0,0,1-1.105-.377L29.554-.2a1.469,1.469,0,0,0-1.965,0L-1.267,24.048a1.769,1.769,0,0,1-1.105.377,1.158,1.158,0,0,1-.982-.5l-3.07-3.895A1.589,1.589,0,0,1-6.731,18.9a1.612,1.612,0,0,1,.43-1.005L24.888-8.368A5.461,5.461,0,0,1,28.572-9.75a5.932,5.932,0,0,1,3.807,1.382L43.307.93V-8.242a1.471,1.471,0,0,1,.43-1.068,1.4,1.4,0,0,1,1.044-.44h6.876a1.4,1.4,0,0,1,1.044.44,1.471,1.471,0,0,1,.43,1.068V9.222Z" transform="translate(30.44 31.82)"/><text class="c" transform="translate(55.92 107.788)"><tspan x="-17.901" y="0">HOME</tspan></text></svg>