<svg xmlns="http://www.w3.org/2000/svg" width="95.87" height="95.87" viewBox="0 0 95.87 95.87">
  <g id="info_but" transform="translate(-249 -218.217)">
    <path id="btn-bg" d="M7,0H88.87a7,7,0,0,1,7,7V88.87a7,7,0,0,1-7,7H7a7,7,0,0,1-7-7V7A7,7,0,0,1,7,0Z" transform="translate(249 218.217)" fill="#d4e5ef"/>
    <path id="Path_70606" data-name="Path 70606" d="M-25.77-8.34H-30.8V0h5.148V-1.38h-3.684V-3.648h2.52V-5.016h-2.52V-6.96h3.564Zm7.764,0h-1.488l-2.064,6.516L-23.586-8.34h-1.572L-22.446,0h1.668Zm5.94,0h-5.028V0h5.148V-1.38H-15.63V-3.648h2.52V-5.016h-2.52V-6.96h3.564Zm7.716,0H-5.766V-2.7L-9.342-8.34h-1.272V0H-9.2V-5.424L-5.754,0h1.4Zm7.656,0h-6.66v1.38H-.762V0H.69V-6.96H3.306Zm5.1,0H6.942V0H8.406Zm8.016,0H15.006V-2.7L11.43-8.34H10.158V0h1.416V-5.424L15.018,0h1.4Zm6.792,0h-5.04V0h1.464V-3.48h2.58V-4.848h-2.58V-6.96h3.576Zm4.308-.168c-2.5,0-3.516,1.056-3.516,4.284,0,3.2,1.02,4.392,3.516,4.392s3.564-1.188,3.564-4.392C31.086-7.452,30.018-8.508,27.522-8.508Zm0,1.38c1.5,0,2.04.672,2.04,2.928s-.528,3-2.04,3c-1.488,0-1.968-.744-1.968-3S26.034-7.128,27.522-7.128Z" transform="translate(296.798 296)" fill="#536972"/>
    <g id="info_icon" transform="translate(270 230)">
      <g id="Group_2398" data-name="Group 2398" transform="translate(22.82 11.536)">
        <path id="Path_70595" data-name="Path 70595" d="M38.252,24.573c3.17,0,4.348-1.068,4.348-3.937,0-2.933-1.18-4.023-4.348-4.023S33.9,17.7,33.9,20.636C33.9,23.506,35.082,24.573,38.252,24.573Z" transform="translate(-33.904 -16.613)" fill="#536972"/>
        <rect id="Rectangle_1379" data-name="Rectangle 1379" width="8.175" height="20.727" transform="translate(0.237 10.402)" fill="#536972"/>
      </g>
      <path id="Path_70596" data-name="Path 70596" d="M27.405,2a25.405,25.405,0,1,0,25.4,25.405A25.405,25.405,0,0,0,27.405,2Zm0,46.895a21.49,21.49,0,1,1,21.49-21.49A21.514,21.514,0,0,1,27.405,48.895Z" fill="#536972"/>
    </g>
  </g>
</svg>
