<svg xmlns="http://www.w3.org/2000/svg" width="50.81" height="50.81" viewBox="0 0 50.81 50.81">
  <g id="info_icon" transform="translate(-2 -2)">
    <g id="Group_2398" data-name="Group 2398" transform="translate(22.82 11.536)">
      <path id="Path_70595" data-name="Path 70595" d="M38.252,24.573c3.17,0,4.348-1.068,4.348-3.937,0-2.933-1.18-4.023-4.348-4.023S33.9,17.7,33.9,20.636C33.9,23.506,35.082,24.573,38.252,24.573Z" transform="translate(-33.904 -16.613)" fill="#536972"/>
      <rect id="Rectangle_1379" data-name="Rectangle 1379" width="8.175" height="20.727" transform="translate(0.237 10.402)" fill="#536972"/>
    </g>
    <path id="Path_70596" data-name="Path 70596" d="M27.405,2a25.405,25.405,0,1,0,25.4,25.405A25.405,25.405,0,0,0,27.405,2Zm0,46.895a21.49,21.49,0,1,1,21.49-21.49A21.514,21.514,0,0,1,27.405,48.895Z" fill="#536972"/>
  </g>
</svg>
