<svg xmlns="http://www.w3.org/2000/svg" width="80" height="80" viewBox="0 0 80 80">
  <g id="jobs_box" transform="translate(-353 -146)">
    <rect id="btn-bg" width="80" height="80" transform="translate(353 146)" fill="#d4e5ef"/>
    <g id="jobs_icon" transform="translate(371 167)">
      <path id="Subtraction_3" data-name="Subtraction 3" d="M39.307,38H3.93A3.935,3.935,0,0,1,0,34.069V19.481a54.565,54.565,0,0,0,21.619,4.363,54.566,54.566,0,0,0,21.619-4.363V34.069A3.935,3.935,0,0,1,39.307,38ZM21.619,21.879a54.715,54.715,0,0,1-11.3-1.172A52.391,52.391,0,0,1,0,17.384V12.449A3.935,3.935,0,0,1,3.93,8.518H39.307a3.935,3.935,0,0,1,3.93,3.931v4.935a52.373,52.373,0,0,1-10.321,3.323A54.719,54.719,0,0,1,21.619,21.879ZM20.309,14.9a1.966,1.966,0,0,0,0,3.931h3.276a1.966,1.966,0,0,0,0-3.931Zm-4.586-7.69H12.447V3.931A3.943,3.943,0,0,1,16.378,0H26.861a3.942,3.942,0,0,1,3.93,3.931V7.206H27.515V4.586a1.311,1.311,0,0,0-1.31-1.31H17.033a1.312,1.312,0,0,0-1.31,1.31V7.207Z" transform="translate(0 0)" fill="#536972" stroke="rgba(0,0,0,0)" stroke-width="1"/>
    </g>
  </g>
</svg>
