<svg xmlns="http://www.w3.org/2000/svg" width="35.99" height="31.749" viewBox="0 0 35.99 31.749">
  <g id="jobs_icon" transform="translate(0.5 0.5)">
    <path id="Subtraction_3" data-name="Subtraction 3" d="M31.809,30.749H3.181A3.184,3.184,0,0,1,0,27.568v-11.8a44.153,44.153,0,0,0,17.5,3.531,44.154,44.154,0,0,0,17.5-3.531v11.8A3.185,3.185,0,0,1,31.809,30.749ZM17.5,17.7A42.992,42.992,0,0,1,0,14.066V10.073A3.184,3.184,0,0,1,3.181,6.892H31.809a3.185,3.185,0,0,1,3.181,3.181v3.993A43,43,0,0,1,17.5,17.7Zm-1.06-5.648a1.59,1.59,0,1,0,0,3.181h2.65a1.59,1.59,0,1,0,0-3.181ZM12.723,5.833h-2.65V3.181A3.189,3.189,0,0,1,13.253,0h8.483a3.19,3.19,0,0,1,3.181,3.181v2.65H22.266V3.711a1.061,1.061,0,0,0-1.06-1.06H13.784a1.061,1.061,0,0,0-1.06,1.06V5.832Z" transform="translate(0 0)" fill="#8ea5ae" stroke="rgba(0,0,0,0)" stroke-width="1"/>
  </g>
</svg>
