<svg xmlns="http://www.w3.org/2000/svg" width="57.897" height="51" viewBox="0 0 57.897 51">
  <g id="jobs_icon" transform="translate(0.5 0.5)">
    <path id="Subtraction_3" data-name="Subtraction 3" d="M51.725,50H5.172A5.179,5.179,0,0,1,0,44.827V25.633a71.794,71.794,0,0,0,28.448,5.741A71.8,71.8,0,0,0,56.9,25.633V44.827A5.179,5.179,0,0,1,51.725,50ZM28.448,28.788a71.994,71.994,0,0,1-14.866-1.543A68.954,68.954,0,0,1,0,22.873V16.379a5.178,5.178,0,0,1,5.172-5.172H51.725A5.178,5.178,0,0,1,56.9,16.379v6.493a68.951,68.951,0,0,1-13.583,4.373A72,72,0,0,1,28.448,28.788ZM26.725,19.6a2.586,2.586,0,1,0,0,5.172h4.31a2.586,2.586,0,0,0,0-5.172ZM20.69,9.483H16.379V5.172A5.187,5.187,0,0,1,21.551,0H35.345a5.186,5.186,0,0,1,5.172,5.172V9.481h-4.31V6.035A1.726,1.726,0,0,0,34.483,4.31H22.414A1.726,1.726,0,0,0,20.69,6.035V9.482Z" transform="translate(0 0)" fill="#536972" stroke="rgba(0,0,0,0)" stroke-width="1"/>
  </g>
</svg>
