<svg xmlns="http://www.w3.org/2000/svg" width="95.87" height="95.87" viewBox="0 0 95.87 95.87">
  <g id="jobs_but" transform="translate(-249 -327.348)">
    <rect id="btn-bg" width="95.87" height="95.87" rx="7" transform="translate(249 327.348)" fill="#d4e5ef"/>
    <path id="Path_70609" data-name="Path 70609" d="M-9.75-8.34h-1.464v9c0,.576-.228.768-.636.768a3.751,3.751,0,0,1-1.3-.24l-.42,1.308a5.4,5.4,0,0,0,1.884.3C-10.446,2.8-9.75,2.28-9.75.888Zm4.98-.168c-2.5,0-3.516,1.056-3.516,4.284,0,3.2,1.02,4.392,3.516,4.392S-1.206-1.02-1.206-4.224C-1.206-7.452-2.274-8.508-4.77-8.508Zm0,1.38c1.5,0,2.04.672,2.04,2.928s-.528,3-2.04,3c-1.488,0-1.968-.744-1.968-3S-6.258-7.128-4.77-7.128ZM3.006-8.34H.258V0H2.97C5,0,5.994-.66,5.994-2.376A1.957,1.957,0,0,0,4.878-4.428a1.691,1.691,0,0,0,.7-1.548C5.574-7.7,4.938-8.34,3.006-8.34Zm.312,4.68A1.025,1.025,0,0,1,4.494-2.5c0,.84-.444,1.128-1.5,1.128H1.722V-3.66Zm-.36-3.324c.876,0,1.152.288,1.152,1.044,0,.576-.216.972-.876.972H1.722V-6.984Zm6.7-1.524c-1.992,0-2.76.864-2.76,2.5,0,1.284.564,2.076,2.34,2.5,1.2.3,1.632.588,1.632,1.248,0,.684-.36,1.056-1.224,1.056a7.511,7.511,0,0,1-2.436-.48l-.3,1.356a7.066,7.066,0,0,0,2.868.5c1.9,0,2.628-.948,2.628-2.436,0-1.44-.6-2.124-2.5-2.6C8.67-5.208,8.37-5.52,8.37-6.1c0-.732.432-1.032,1.248-1.032a7.143,7.143,0,0,1,2.1.372l.324-1.356A7.651,7.651,0,0,0,9.654-8.508Z" transform="translate(298 406)" fill="#536972"/>
    <g id="jobs_icon" transform="translate(274.957 345.596)">
      <path id="Subtraction_3" data-name="Subtraction 3" d="M41.379,40H4.138A4.143,4.143,0,0,1,0,35.862V20.507A57.442,57.442,0,0,0,22.758,25.1a57.446,57.446,0,0,0,22.759-4.594V35.862A4.143,4.143,0,0,1,41.379,40ZM22.758,23.031A57.587,57.587,0,0,1,10.866,21.8,55.161,55.161,0,0,1,0,18.3V13.1A4.143,4.143,0,0,1,4.138,8.966H41.379A4.143,4.143,0,0,1,45.518,13.1V18.3a55.159,55.159,0,0,1-10.866,3.5A57.593,57.593,0,0,1,22.758,23.031ZM21.38,15.682a2.069,2.069,0,1,0,0,4.137h3.448a2.069,2.069,0,1,0,0-4.137Zm-4.828-8.1H13.1V4.138A4.151,4.151,0,0,1,17.241,0H28.276a4.149,4.149,0,0,1,4.137,4.138V7.585H28.966V4.828a1.381,1.381,0,0,0-1.38-1.38H17.931a1.381,1.381,0,0,0-1.379,1.38V7.586Z" transform="translate(0 0)" fill="#536972" stroke="rgba(0,0,0,0)" stroke-width="1"/>
    </g>
  </g>
</svg>
