<svg xmlns="http://www.w3.org/2000/svg" width="200" height="200" viewBox="0 0 200 200"><defs><style>.a{fill:#d4e5ef;}.b,.c{fill:#536972;}.b{font-size:24px;font-family:HeliaCore-Book, Helia Core;}.c{stroke:rgba(0,0,0,0);}</style></defs><g transform="translate(-1800)"><rect class="a" width="200" height="200" transform="translate(1800)"/><text class="b" transform="translate(1902 180)"><tspan x="-24.612" y="0">JOBS</tspan></text><g transform="translate(1848 34)"><path class="c" d="M95.172,92H9.518A9.528,9.528,0,0,1,0,82.483V47.164A132.121,132.121,0,0,0,52.345,57.729,132.122,132.122,0,0,0,104.69,47.164V82.483A9.528,9.528,0,0,1,95.172,92ZM52.345,52.97a132.5,132.5,0,0,1-27.353-2.838A126.824,126.824,0,0,1,0,42.086V30.138a9.528,9.528,0,0,1,9.518-9.517H95.172a9.528,9.528,0,0,1,9.518,9.517V42.086A126.822,126.822,0,0,1,79.7,50.131,132.5,132.5,0,0,1,52.345,52.97Zm-3.931-16.9a4,4,0,0,0-4,4v1.517a4,4,0,0,0,4,4h9.448a4,4,0,0,0,4-4V40.069a4,4,0,0,0-4-4ZM38.069,17.449H30.138V9.518A9.528,9.528,0,0,1,39.655,0h25.38a9.528,9.528,0,0,1,9.517,9.517v7.93H66.621V11.1a3.176,3.176,0,0,0-3.173-3.172H41.242A3.176,3.176,0,0,0,38.069,11.1v6.345Z" transform="translate(0 0)"/></g></g></svg>