<svg xmlns="http://www.w3.org/2000/svg" width="50.555" height="44.548" viewBox="0 0 50.555 44.548">
  <g id="jobs_icon" transform="translate(0.5 0.5)">
    <path id="Subtraction_3" data-name="Subtraction 3" d="M45.05,43.548H4.505A4.51,4.51,0,0,1,0,39.043V22.325a62.542,62.542,0,0,0,24.778,5,62.541,62.541,0,0,0,24.777-5V39.043A4.51,4.51,0,0,1,45.05,43.548ZM24.778,25.073A62.713,62.713,0,0,1,11.83,23.729,60.025,60.025,0,0,1,0,19.921V14.266A4.51,4.51,0,0,1,4.505,9.761H45.05a4.51,4.51,0,0,1,4.5,4.505v5.655a60.008,60.008,0,0,1-11.83,3.809A62.711,62.711,0,0,1,24.778,25.073Zm-1.5-8a2.253,2.253,0,0,0,0,4.505H27.03a2.253,2.253,0,0,0,0-4.505ZM18.02,8.26H14.266V4.505A4.517,4.517,0,0,1,18.771,0H30.785a4.517,4.517,0,0,1,4.5,4.505V8.258H31.535v-3a1.5,1.5,0,0,0-1.5-1.5H19.522a1.5,1.5,0,0,0-1.5,1.5v3Z" transform="translate(0 0)" fill="#536972" stroke="rgba(0,0,0,0)" stroke-width="1"/>
  </g>
</svg>
