<svg xmlns="http://www.w3.org/2000/svg" width="60" height="60" viewBox="0 0 60 60"><defs><style>.a{fill:#d4e5ef;}.b,.c{fill:#536972;}.b{font-size:9px;font-family:HeliaCore-Book, Helia Core;}.c{stroke:rgba(0,0,0,0);}</style></defs><g transform="translate(-540)"><rect class="a" width="60" height="60" transform="translate(540)"/><text class="b" transform="translate(571 54.4)"><tspan x="-9.229" y="0">JOBS</tspan></text><g transform="translate(554.4 10.2)"><path class="c" d="M28.552,27.6H2.855A2.858,2.858,0,0,1,0,24.746V14.15a39.642,39.642,0,0,0,15.7,3.169,39.645,39.645,0,0,0,15.7-3.169v10.6A2.858,2.858,0,0,1,28.552,27.6ZM15.7,15.891A38.591,38.591,0,0,1,0,12.626V9.041A2.858,2.858,0,0,1,2.855,6.187h25.7a2.858,2.858,0,0,1,2.856,2.855v3.585A38.6,38.6,0,0,1,15.7,15.891Zm-.951-5.071a1.427,1.427,0,1,0,0,2.855h2.379a1.427,1.427,0,1,0,0-2.855ZM11.421,5.235H9.041V2.855A2.863,2.863,0,0,1,11.9,0H19.51a2.864,2.864,0,0,1,2.856,2.855V5.233h-2.38v-1.9a.953.953,0,0,0-.952-.951H12.372a.952.952,0,0,0-.951.951v1.9Z" transform="translate(0 0)"/></g></g></svg>