<svg xmlns="http://www.w3.org/2000/svg" width="118" height="118" viewBox="0 0 118 118"><defs><style>.a{fill:#536972;}.b,.c{fill:#d4e5ef;}.b{font-size:13px;font-family:HeliaCore-Bold, Helia Core;font-weight:700;}.c{stroke:rgba(0,0,0,0);}</style></defs><g transform="translate(-282 -284)"><rect class="a" width="118" height="118" transform="translate(282 284)"/><text class="b" transform="translate(339.4 376.6)"><tspan x="-14.034" y="0">JOBS</tspan></text><g transform="translate(308.8 302.2)"><path class="c" d="M57.1,55.2H5.711A5.717,5.717,0,0,1,0,49.489V28.3a79.265,79.265,0,0,0,31.407,6.338A79.265,79.265,0,0,0,62.814,28.3v21.19A5.717,5.717,0,0,1,57.1,55.2Zm-25.7-23.418a79.5,79.5,0,0,1-16.412-1.7A76.105,76.105,0,0,1,0,25.251V18.083a5.717,5.717,0,0,1,5.71-5.71H57.1a5.717,5.717,0,0,1,5.711,5.71v7.168a76.1,76.1,0,0,1-14.995,4.827A79.491,79.491,0,0,1,31.407,31.782Zm-1.9-10.14a2.855,2.855,0,1,0,0,5.711h4.758a2.855,2.855,0,0,0,0-5.711ZM22.841,10.47H18.083V5.711A5.726,5.726,0,0,1,23.793,0H39.02a5.726,5.726,0,0,1,5.711,5.711v4.757H39.973V6.662a1.906,1.906,0,0,0-1.9-1.9H24.745a1.906,1.906,0,0,0-1.9,1.9v3.807Z" transform="translate(0 0)"/></g></g></svg>