<svg xmlns="http://www.w3.org/2000/svg" width="118.125" height="118.125" viewBox="0 0 118.125 118.125"><defs><style>.a{fill:#536972;}.b,.c{fill:#d4e5ef;}.b{font-size:13px;font-family:HeliaCore-Bold, Helia Core;font-weight:700;}</style></defs><path class="a" d="M0,0H118.125V118.125H0Z"/><text class="b" transform="translate(55.8 105.319)"><tspan x="-18.291" y="0">LOGIN</tspan></text><g transform="translate(23.625 21.502)"><path class="c" d="M38.194,23.718A12.951,12.951,0,0,0,47.707,19.8a12.951,12.951,0,0,0,3.917-9.512V-16.571a12.951,12.951,0,0,0-3.917-9.512A12.951,12.951,0,0,0,38.194-30H26.443a1.619,1.619,0,0,0-1.189.49,1.619,1.619,0,0,0-.49,1.189v5.6a1.619,1.619,0,0,0,.49,1.189,1.619,1.619,0,0,0,1.189.49H38.194a4.3,4.3,0,0,1,3.148,1.329,4.3,4.3,0,0,1,1.329,3.148V10.288a4.3,4.3,0,0,1-1.329,3.148,4.3,4.3,0,0,1-3.148,1.329H26.443a1.672,1.672,0,0,0-1.679,1.679v5.6a1.672,1.672,0,0,0,1.679,1.679ZM31.619-4.4A3.238,3.238,0,0,1,32.6-2.022,3.238,3.238,0,0,1,31.619.356l-23.5,23.5a3.238,3.238,0,0,1-2.378.979,3.238,3.238,0,0,1-2.378-.979,3.238,3.238,0,0,1-.979-2.378V8.05H-16.643a3.238,3.238,0,0,1-2.378-.979A3.238,3.238,0,0,1-20,4.693V-8.737a3.238,3.238,0,0,1,.979-2.378,3.238,3.238,0,0,1,2.378-.979H2.382V-25.524A3.238,3.238,0,0,1,3.362-27.9a3.238,3.238,0,0,1,2.378-.979,3.238,3.238,0,0,1,2.378.979Z" transform="translate(20 30)"/></g></svg>