<svg xmlns="http://www.w3.org/2000/svg" width="200" height="200" viewBox="0 0 200 200"><defs><style>.a{fill:#d4e5ef;}.b,.c{fill:#536972;}.b{font-size:24px;font-family:HeliaCore-Book, Helia Core;}</style></defs><g transform="translate(-200)"><rect class="a" width="200" height="200" transform="translate(200)"/><text class="b" transform="translate(298 180)"><tspan x="-32.616" y="0">LOGIN</tspan></text><g transform="translate(240 36.405)"><path class="c" d="M78.53,60.95a21.927,21.927,0,0,0,16.106-6.632,21.927,21.927,0,0,0,6.632-16.106V-7.262a21.927,21.927,0,0,0-6.632-16.106A21.927,21.927,0,0,0,78.53-30h-19.9a2.741,2.741,0,0,0-2.013.829,2.741,2.741,0,0,0-.829,2.013v9.474a2.741,2.741,0,0,0,.829,2.013,2.741,2.741,0,0,0,2.013.829h19.9a7.284,7.284,0,0,1,5.329,2.25,7.284,7.284,0,0,1,2.25,5.329V38.213a7.685,7.685,0,0,1-7.579,7.579h-19.9a2.83,2.83,0,0,0-2.842,2.842v9.474a2.83,2.83,0,0,0,2.842,2.842ZM67.4,13.344a5.482,5.482,0,0,1,1.658,4.026A5.482,5.482,0,0,1,67.4,21.4L27.607,61.187a5.718,5.718,0,0,1-8.053,0A5.482,5.482,0,0,1,17.9,57.161V34.423H-14.316a5.482,5.482,0,0,1-4.026-1.658A5.482,5.482,0,0,1-20,28.739V6a5.482,5.482,0,0,1,1.658-4.026A5.482,5.482,0,0,1-14.316.317H17.9V-22.421a5.482,5.482,0,0,1,1.658-4.026,5.482,5.482,0,0,1,4.026-1.658,5.482,5.482,0,0,1,4.026,1.658Z" transform="translate(20 30)"/></g></g></svg>