<svg id="login_icon" xmlns="http://www.w3.org/2000/svg" width="34.99" height="26.789" viewBox="0 0 34.99 26.789">
  <path id="Path_52" data-name="Path 52" d="M8.429-3.758a6.327,6.327,0,0,0,4.647-1.913,6.327,6.327,0,0,0,1.913-4.647V-23.439a6.327,6.327,0,0,0-1.913-4.647A6.327,6.327,0,0,0,8.429-30H2.689a.791.791,0,0,0-.581.239.791.791,0,0,0-.239.581v2.734a.791.791,0,0,0,.239.581.791.791,0,0,0,.581.239h5.74a2.1,2.1,0,0,1,1.538.649,2.1,2.1,0,0,1,.649,1.538v13.121a2.1,2.1,0,0,1-.649,1.538,2.1,2.1,0,0,1-1.538.649H2.689a.791.791,0,0,0-.581.239.791.791,0,0,0-.239.581v2.734A.791.791,0,0,0,2.108-4a.791.791,0,0,0,.581.239ZM5.217-17.494A1.582,1.582,0,0,1,5.7-16.332a1.582,1.582,0,0,1-.478,1.162L-6.264-3.689a1.582,1.582,0,0,1-1.162.478,1.582,1.582,0,0,1-1.162-.478,1.582,1.582,0,0,1-.478-1.162v-6.561H-18.36a1.582,1.582,0,0,1-1.162-.478A1.582,1.582,0,0,1-20-13.052v-6.561a1.582,1.582,0,0,1,.478-1.162,1.582,1.582,0,0,1,1.162-.478h9.294v-6.561a1.582,1.582,0,0,1,.478-1.162,1.582,1.582,0,0,1,1.162-.478,1.582,1.582,0,0,1,1.162.478Z" transform="translate(20 30)" fill="#8ea5ae"/>
</svg>
