<svg xmlns="http://www.w3.org/2000/svg" width="60" height="60" viewBox="0 0 60 60"><defs><style>.a{fill:#d4e5ef;}.b,.c{fill:#536972;}.b{font-size:9px;font-family:HeliaCore-Book, Helia Core;}</style></defs><g transform="translate(-60)"><rect class="a" width="60" height="60" transform="translate(60)"/><text class="b" transform="translate(90 53.4)"><tspan x="-12.231" y="0">LOGIN</tspan></text><g transform="translate(72 10.921)"><path class="c" d="M9.559-2.715A6.578,6.578,0,0,0,14.391-4.7a6.578,6.578,0,0,0,1.99-4.832V-23.179a6.578,6.578,0,0,0-1.99-4.832A6.578,6.578,0,0,0,9.559-30H3.59a.822.822,0,0,0-.6.249.822.822,0,0,0-.249.6v2.842a.822.822,0,0,0,.249.6.822.822,0,0,0,.6.249H9.559a2.185,2.185,0,0,1,1.6.675,2.185,2.185,0,0,1,.675,1.6V-9.536a2.185,2.185,0,0,1-.675,1.6,2.185,2.185,0,0,1-1.6.675H3.59a.822.822,0,0,0-.6.249.822.822,0,0,0-.249.6v2.842a.822.822,0,0,0,.249.6.822.822,0,0,0,.6.249ZM6.219-17a1.645,1.645,0,0,1,.5,1.208,1.645,1.645,0,0,1-.5,1.208L-5.718-2.644a1.645,1.645,0,0,1-1.208.5,1.645,1.645,0,0,1-1.208-.5,1.645,1.645,0,0,1-.5-1.208v-6.821h-9.663a1.645,1.645,0,0,1-1.208-.5,1.645,1.645,0,0,1-.5-1.208V-19.2a1.645,1.645,0,0,1,.5-1.208,1.645,1.645,0,0,1,1.208-.5h9.663v-6.821a1.645,1.645,0,0,1,.5-1.208,1.645,1.645,0,0,1,1.208-.5,1.645,1.645,0,0,1,1.208.5Z" transform="translate(20 30)"/></g></g></svg>