<svg xmlns="http://www.w3.org/2000/svg" width="118" height="118" viewBox="0 0 118 118"><defs><style>.a{fill:#536972;}.b,.c{fill:#d4e5ef;}.c{font-size:14px;font-family:HeliaCore-Bold, Helia Core;font-weight:700;}</style></defs><g transform="translate(-16 -284)"><rect class="a" width="118" height="118" transform="translate(16 284)"/><path class="b" d="M29.356-10.5a15.344,15.344,0,0,1,7.9,2.131A15.9,15.9,0,0,1,43.021-2.6a15.344,15.344,0,0,1,2.131,7.9q0,4.639-5.642,13.164a142.1,142.1,0,0,1-8.65,11.408,1.88,1.88,0,0,1-3.009,0A142.1,142.1,0,0,1,19.2,18.46Q13.559,9.935,13.559,5.3a15.344,15.344,0,0,1,2.131-7.9,15.9,15.9,0,0,1,5.767-5.767A15.344,15.344,0,0,1,29.356-10.5Zm0,21.062a5.058,5.058,0,0,0,3.7-1.567,5.058,5.058,0,0,0,1.567-3.7,5.058,5.058,0,0,0-1.567-3.7,5.148,5.148,0,0,0-7.4,0A5.058,5.058,0,0,0,24.09,5.3a5.058,5.058,0,0,0,1.567,3.7A5.058,5.058,0,0,0,29.356,10.562Zm-33.6,6.018,14.919-6.018a32.133,32.133,0,0,0,2.633,5.892v29.21l-17.3,7.9a1.907,1.907,0,0,1-1.881-.251,1.919,1.919,0,0,1-.878-1.63V20.34a3.891,3.891,0,0,1,.69-2.257A4.263,4.263,0,0,1-4.243,16.579Zm33.6,18.053A5.945,5.945,0,0,0,33.994,32.5q4.137-5.015,7.4-9.653v30.84L17.32,45.664V22.848q3.26,4.639,7.4,9.653A5.945,5.945,0,0,0,29.356,34.632ZM62.7,9.684a2.06,2.06,0,0,1,2.758,1.881V42.906a3.891,3.891,0,0,1-.69,2.257,4.263,4.263,0,0,1-1.818,1.5L45.4,53.688V17.582Z" transform="translate(44.75 309.7)"/><text class="c" transform="translate(73.6 385.4)"><tspan x="-14.343" y="0">MAP</tspan></text></g></svg>