<svg xmlns="http://www.w3.org/2000/svg" width="60" height="60" viewBox="0 0 60 60"><defs><style>.a{fill:#d4e5ef;}.b,.c{fill:#536972;}.c{font-size:9px;font-family:HeliaCore-Book, Helia Core;}</style></defs><g transform="translate(-360)"><rect class="a" width="60" height="60" transform="translate(360)"/><path class="b" d="M11.3-10.5a7.672,7.672,0,0,1,3.949,1.066,7.949,7.949,0,0,1,2.883,2.883A7.672,7.672,0,0,1,19.2-2.6q0,2.319-2.821,6.582a71.05,71.05,0,0,1-4.325,5.7.94.94,0,0,1-1.5,0,71.051,71.051,0,0,1-4.325-5.7Q3.4-.283,3.4-2.6A7.672,7.672,0,0,1,4.47-6.551,7.949,7.949,0,0,1,7.354-9.434,7.672,7.672,0,0,1,11.3-10.5ZM11.3.031a2.529,2.529,0,0,0,1.849-.784A2.529,2.529,0,0,0,13.936-2.6a2.529,2.529,0,0,0-.784-1.849A2.529,2.529,0,0,0,11.3-5.235a2.529,2.529,0,0,0-1.849.784A2.529,2.529,0,0,0,8.67-2.6,2.529,2.529,0,0,0,9.454-.753,2.529,2.529,0,0,0,11.3.031ZM-5.5,3.04,1.963.031A16.067,16.067,0,0,0,3.279,2.977V17.582l-8.65,3.949a.953.953,0,0,1-.94-.125.96.96,0,0,1-.439-.815V4.92a1.945,1.945,0,0,1,.345-1.128A2.131,2.131,0,0,1-5.5,3.04Zm16.8,9.026A2.972,2.972,0,0,0,13.622,11q2.069-2.507,3.7-4.827v15.42L5.285,17.582V6.174Q6.915,8.493,8.984,11A2.973,2.973,0,0,0,11.3,12.066ZM27.977-.408a.953.953,0,0,1,.94.125.96.96,0,0,1,.439.815V16.2a1.945,1.945,0,0,1-.345,1.128,2.131,2.131,0,0,1-.909.752l-8.776,3.51V3.541Z" transform="translate(378.75 20.1)"/><text class="c" transform="translate(390 54)"><tspan x="-8.703" y="0">MAP</tspan></text></g></svg>