<svg xmlns="http://www.w3.org/2000/svg" width="200" height="200" viewBox="0 0 200 200"><defs><style>.a{fill:#d4e5ef;}.b,.c{fill:#536972;}.c{font-size:23px;font-family:HeliaCore-Book, Helia Core;}</style></defs><g transform="translate(-1200)"><rect class="a" width="200" height="200" transform="translate(1200)"/><path class="b" d="M53.426-10.5A25.573,25.573,0,0,1,66.59-6.948,26.5,26.5,0,0,1,76.2,2.664a25.573,25.573,0,0,1,3.552,13.164q0,7.731-9.4,21.939A236.834,236.834,0,0,1,55.933,56.78a3.134,3.134,0,0,1-5.015,0A236.836,236.836,0,0,1,36.5,37.766q-9.4-14.208-9.4-21.939A25.573,25.573,0,0,1,30.651,2.664a26.5,26.5,0,0,1,9.611-9.611A25.573,25.573,0,0,1,53.426-10.5Zm0,35.1a8.43,8.43,0,0,0,6.164-2.612,8.579,8.579,0,0,0,0-12.328,8.579,8.579,0,0,0-12.328,0,8.579,8.579,0,0,0,0,12.328A8.43,8.43,0,0,0,53.426,24.6Zm-56,10.029L22.293,24.6a53.555,53.555,0,0,0,4.388,9.82V83.107L-2.153,96.271a3.178,3.178,0,0,1-3.134-.418A3.2,3.2,0,0,1-6.75,93.137V40.9A6.485,6.485,0,0,1-5.6,37.139,7.1,7.1,0,0,1-2.571,34.632Zm56,30.088a9.908,9.908,0,0,0,7.731-3.552q6.9-8.358,12.328-16.089v51.4L33.367,83.107V45.079Q38.8,52.81,45.7,61.168A9.908,9.908,0,0,0,53.426,64.72Zm55.579-41.58a3.434,3.434,0,0,1,4.6,3.134V78.51a6.485,6.485,0,0,1-1.149,3.761,7.1,7.1,0,0,1-3.03,2.507L80.171,96.48V36.3Z" transform="translate(1246.75 42.5)"/><text class="c" transform="translate(1300 181)"><tspan x="-22.241" y="0">MAP</tspan></text></g></svg>