<svg xmlns="http://www.w3.org/2000/svg" width="56.236" height="50" viewBox="0 0 56.236 50">
  <path id="map_icon" d="M21.368-10.5a11.949,11.949,0,0,1,6.151,1.66A12.381,12.381,0,0,1,32.01-4.349,11.949,11.949,0,0,1,33.67,1.8q0,3.612-4.393,10.251a110.665,110.665,0,0,1-6.737,8.885,1.464,1.464,0,0,1-2.343,0,110.666,110.666,0,0,1-6.737-8.885Q9.066,5.414,9.066,1.8a11.949,11.949,0,0,1,1.66-6.151A12.381,12.381,0,0,1,15.217-8.84,11.949,11.949,0,0,1,21.368-10.5Zm0,16.4a3.939,3.939,0,0,0,2.88-1.22,3.939,3.939,0,0,0,1.22-2.88,3.939,3.939,0,0,0-1.22-2.88,4.009,4.009,0,0,0-5.76,0,3.939,3.939,0,0,0-1.22,2.88,3.939,3.939,0,0,0,1.22,2.88A3.939,3.939,0,0,0,21.368,5.9ZM-4.8,10.589,6.821,5.9a25.025,25.025,0,0,0,2.05,4.589V33.239L-4.6,39.39a1.485,1.485,0,0,1-1.464-.2,1.5,1.5,0,0,1-.683-1.269V13.518a3.03,3.03,0,0,1,.537-1.757A3.32,3.32,0,0,1-4.8,10.589ZM21.368,24.648a4.63,4.63,0,0,0,3.612-1.66q3.222-3.905,5.76-7.518V39.488L12,33.239V15.47q2.538,3.612,5.76,7.518A4.63,4.63,0,0,0,21.368,24.648ZM47.338,5.219a1.485,1.485,0,0,1,1.464.2,1.5,1.5,0,0,1,.683,1.269V31.091a3.03,3.03,0,0,1-.537,1.757,3.32,3.32,0,0,1-1.416,1.172L33.865,39.488V11.37Z" transform="translate(6.75 10.5)" fill="#536972"/>
</svg>
