<svg xmlns="http://www.w3.org/2000/svg" width="80" height="80" viewBox="0 0 80 80">
  <g id="map_box" transform="translate(-185 -146)">
    <rect id="btn-bg" width="80" height="80" transform="translate(185 146)" fill="#d4e5ef"/>
    <path id="map_icon" d="M17.632-10.5a10.361,10.361,0,0,1,5.334,1.439A10.735,10.735,0,0,1,26.86-5.166,10.361,10.361,0,0,1,28.3.167q0,3.132-3.81,8.889a95.96,95.96,0,0,1-5.841,7.7,1.27,1.27,0,0,1-2.032,0,95.961,95.961,0,0,1-5.841-7.7Q6.965,3.3,6.965.167A10.361,10.361,0,0,1,8.4-5.166,10.736,10.736,0,0,1,12.3-9.061,10.362,10.362,0,0,1,17.632-10.5Zm0,14.223a3.416,3.416,0,0,0,2.5-1.058,3.416,3.416,0,0,0,1.058-2.5,3.416,3.416,0,0,0-1.058-2.5,3.476,3.476,0,0,0-4.995,0,3.416,3.416,0,0,0-1.058,2.5,3.416,3.416,0,0,0,1.058,2.5A3.416,3.416,0,0,0,17.632,3.723ZM-5.057,7.786,5.018,3.723A21.7,21.7,0,0,0,6.8,7.7V27.427L-4.887,32.761a1.288,1.288,0,0,1-1.27-.169,1.3,1.3,0,0,1-.593-1.1V10.326A2.627,2.627,0,0,1-6.284,8.8,2.879,2.879,0,0,1-5.057,7.786ZM17.632,19.977a4.015,4.015,0,0,0,3.132-1.439q2.794-3.386,4.995-6.519V32.846L9.5,27.427V12.019q2.2,3.132,4.995,6.519A4.015,4.015,0,0,0,17.632,19.977ZM40.151,3.13a1.288,1.288,0,0,1,1.27.169,1.3,1.3,0,0,1,.593,1.1V25.565a2.627,2.627,0,0,1-.466,1.524A2.878,2.878,0,0,1,40.321,28.1L28.468,32.846V8.464Z" transform="translate(207.75 174.5)" fill="#536972"/>
  </g>
</svg>
