<svg xmlns="http://www.w3.org/2000/svg" width="56.969" height="50.652" viewBox="0 0 56.969 50.652">
  <path id="map_icon" d="M21.735-10.5a12.1,12.1,0,0,1,6.231,1.681,12.542,12.542,0,0,1,4.55,4.55A12.1,12.1,0,0,1,34.2,1.962q0,3.659-4.451,10.385a112.108,112.108,0,0,1-6.824,9,1.484,1.484,0,0,1-2.374,0,112.107,112.107,0,0,1-6.824-9Q9.273,5.621,9.273,1.962a12.1,12.1,0,0,1,1.681-6.231,12.542,12.542,0,0,1,4.55-4.55A12.105,12.105,0,0,1,21.735-10.5Zm0,16.616A3.99,3.99,0,0,0,24.652,4.88a3.99,3.99,0,0,0,1.236-2.918A3.99,3.99,0,0,0,24.652-.956a4.061,4.061,0,0,0-5.835,0,3.99,3.99,0,0,0-1.236,2.918A3.99,3.99,0,0,0,18.817,4.88,3.99,3.99,0,0,0,21.735,6.116ZM-4.772,10.863,7,6.116a25.351,25.351,0,0,0,2.077,4.649V33.809L-4.574,40.04a1.5,1.5,0,0,1-1.484-.2,1.514,1.514,0,0,1-.692-1.286V13.831a3.07,3.07,0,0,1,.544-1.78A3.363,3.363,0,0,1-4.772,10.863ZM21.735,25.106a4.69,4.69,0,0,0,3.659-1.681q3.264-3.956,5.835-7.616V40.139l-18.99-6.33v-18q2.572,3.659,5.835,7.616A4.69,4.69,0,0,0,21.735,25.106ZM48.043,5.424a1.5,1.5,0,0,1,1.484.2,1.514,1.514,0,0,1,.692,1.286V31.633a3.069,3.069,0,0,1-.544,1.78A3.363,3.363,0,0,1,48.241,34.6L34.394,40.139V11.655Z" transform="translate(6.75 10.5)" fill="#536972"/>
</svg>
