<svg id="people_icon" xmlns="http://www.w3.org/2000/svg" width="34.99" height="34.99" viewBox="0 0 34.99 34.99">
  <path id="Path_2" data-name="Path 2" d="M103.051,118.6c-2.937,0-5.57,1.491-5.845,4.471-.145,1.556.2,5.235.964,6.628a5.589,5.589,0,0,0,9.764,0c.764-1.393,1.108-5.073.965-6.628C108.622,120.09,105.989,118.6,103.051,118.6Z" transform="translate(-85.507 -112.599)" fill="#8ea5ae"/>
  <path id="Path_51" data-name="Path 51" d="M104.109,113.169a17.495,17.495,0,1,0,17.5,17.494A17.515,17.515,0,0,0,104.109,113.169Zm11.068,24.919c-2.783-2.637-8.06-3.753-8.06-3.753s-1.57,5.565-3.008,5.565-2.741-5.565-2.741-5.565-6.984,1.556-8.062,3.753a9.168,9.168,0,0,0-.618,1.865,14.735,14.735,0,1,1,22.905-.085C115.438,139.092,115.291,138.442,115.177,138.088Z" transform="translate(-86.615 -113.169)" fill="#8ea5ae"/>
</svg>
