<svg xmlns="http://www.w3.org/2000/svg" width="95.87" height="95.87" viewBox="0 0 95.87 95.87">
  <g id="presenters_but" transform="translate(-141 -327.348)">
    <rect id="btn-bg" width="95.87" height="95.87" rx="7" transform="translate(141 327.348)" fill="#d4e5ef"/>
    <path id="Path_70608" data-name="Path 70608" d="M-30.306-8.34h-2.436V0h1.476V-2.988h.972c2.544,0,3.108-1.032,3.108-2.6C-27.186-7.248-27.834-8.34-30.306-8.34Zm.108,1.38c1.1,0,1.524.384,1.524,1.32,0,.876-.4,1.272-1.536,1.272h-1.056V-6.96Zm6.564-1.38H-26.07V0h1.464V-3.288H-23.6L-21.8,0h1.6l-1.92-3.5a2.16,2.16,0,0,0,1.5-2.28C-20.622-7.44-21.162-8.34-23.634-8.34Zm.084,1.38c1.068,0,1.428.336,1.428,1.176,0,.8-.372,1.14-1.308,1.14h-1.176V-6.96Zm9.42-1.38h-5.028V0h5.148V-1.38h-3.684V-3.648h2.52V-5.016h-2.52V-6.96h3.564Zm3.7-.168c-1.992,0-2.76.864-2.76,2.5,0,1.284.564,2.076,2.34,2.5,1.2.3,1.632.588,1.632,1.248,0,.684-.36,1.056-1.224,1.056a7.511,7.511,0,0,1-2.436-.48l-.3,1.356a7.066,7.066,0,0,0,2.868.5c1.9,0,2.628-.948,2.628-2.436,0-1.44-.6-2.124-2.5-2.6-1.236-.336-1.536-.648-1.536-1.224,0-.732.432-1.032,1.248-1.032a7.143,7.143,0,0,1,2.1.372l.324-1.356A7.651,7.651,0,0,0-10.434-8.508Zm8.976.168H-6.486V0h5.148V-1.38H-5.022V-3.648H-2.5V-5.016h-2.52V-6.96h3.564Zm7.716,0H4.842V-2.7L1.266-8.34H-.006V0H1.41V-5.424L4.854,0h1.4Zm7.656,0H7.254v1.38H9.846V0H11.3V-6.96h2.616Zm6.024,0H14.91V0h5.148V-1.38H16.374V-3.648h2.52V-5.016h-2.52V-6.96h3.564Zm3.888,0H21.39V0h1.464V-3.288h1.008L25.662,0h1.6l-1.92-3.5a2.16,2.16,0,0,0,1.5-2.28C26.838-7.44,26.3-8.34,23.826-8.34Zm.084,1.38c1.068,0,1.428.336,1.428,1.176,0,.8-.372,1.14-1.308,1.14H22.854V-6.96Zm6.636-1.548c-1.992,0-2.76.864-2.76,2.5,0,1.284.564,2.076,2.34,2.5,1.2.3,1.632.588,1.632,1.248,0,.684-.36,1.056-1.224,1.056a7.511,7.511,0,0,1-2.436-.48L27.8-.336a7.066,7.066,0,0,0,2.868.5c1.9,0,2.628-.948,2.628-2.436,0-1.44-.6-2.124-2.5-2.6-1.236-.336-1.536-.648-1.536-1.224,0-.732.432-1.032,1.248-1.032a7.143,7.143,0,0,1,2.1.372l.324-1.356A7.651,7.651,0,0,0,30.546-8.508Z" transform="translate(189 406)" fill="#536972"/>
    <g id="presenters_icon" transform="translate(171 340.229)">
      <path id="Path_9" data-name="Path 9" d="M101.96,181.034V152.742h8.679l-.852-3.184a.343.343,0,0,0-.147-.214l-5.168-3.419a.786.786,0,0,1,.868-1.311l5.5,3.637a.785.785,0,0,1,.353.471l1.077,4.02h.793l-1.093-4.227a.478.478,0,0,0-.223-.305l-3.578-2.267a.785.785,0,0,1,.837-1.328l4,2.535a.781.781,0,0,1,.354.475l1.324,5.118h3.537v3.342h-2.446l-3.375,24.95Z" transform="translate(-83.065 -131.034)" fill="#536972" fill-rule="evenodd"/>
      <g id="Group_4" data-name="Group 4">
        <path id="Path_10" data-name="Path 10" d="M83.589,164.228h.682l-.11,16.552c0,.026,0,.045,0,.071H89.11c0-.026.008-.045.011-.071l.915-13.881L90.2,180.78c0,.026.005.045.006.071h4.944c0-.026.007-.045.009-.071l.376-9.7.309-6.839h.513c.015-3.848.031-8.841.046-12.69l.451,3.928,3.4,1.257v-4.174h1.789l-3.5-1.293c-1.2-2.262-2.7-6.048-4.567-7.711a4.824,4.824,0,0,0-2.149-.923,8.1,8.1,0,0,1-1.48.177,8.429,8.429,0,0,1-2.7-.548c-.333,0-.674-.01-1.008.009-3.568.209-5.386,4.183-5.275,7.448l.653,13.336C82.072,163.9,82.6,164.239,83.589,164.228Z" transform="translate(-81.362 -130.85)" fill="#536972"/>
        <path id="Path_11" data-name="Path 11" d="M90.021,140.532a3.549,3.549,0,0,0,1.425,0,4.423,4.423,0,0,0,2.869-2.151,12.583,12.583,0,0,0,.432-5.111c-.344-2.3-2.412-3.447-4.642-3.447s-4.163,1.149-4.238,3.447a13.193,13.193,0,0,0,1.032,5.111A5.19,5.19,0,0,0,90.021,140.532Z" transform="translate(-81.734 -129.822)" fill="#536972"/>
      </g>
    </g>
  </g>
</svg>
