<svg xmlns="http://www.w3.org/2000/svg" width="95.87" height="95.87" viewBox="0 0 95.87 95.87">
  <g id="Group_2403" data-name="Group 2403" transform="translate(-139.565 -327.348)">
    <rect id="btn-bg" width="95.87" height="95.87" rx="7" transform="translate(139.565 327.348)" fill="#d4e5ef"/>
    <g id="Group_2402" data-name="Group 2402">
      <g id="Group_5" data-name="Group 5" transform="translate(167.87 336.385)">
        <path id="Path_9" data-name="Path 9" d="M101.96,185.546V153.762h9.75l-.957-3.577a.386.386,0,0,0-.165-.24l-5.806-3.841a.883.883,0,0,1,.975-1.473l6.177,4.086a.881.881,0,0,1,.4.529l1.21,4.516h.891l-1.227-4.749a.537.537,0,0,0-.25-.343l-4.019-2.546a.882.882,0,0,1,.94-1.492l4.494,2.847a.877.877,0,0,1,.4.534l1.487,5.749h3.974v3.754h-2.748l-3.791,28.029Z" transform="translate(-80.733 -129.375)" fill="#536972" fill-rule="evenodd"/>
        <g id="Group_4" data-name="Group 4">
          <path id="Path_10" data-name="Path 10" d="M83.864,166.939h.766l-.124,18.595c0,.029,0,.051,0,.079h5.556c0-.029.009-.051.012-.079l1.027-15.594.182,15.594c0,.029.006.051.007.079H96.85c0-.029.008-.051.01-.079l.423-10.9.347-7.684h.576c.016-4.323.035-9.932.052-14.256l.507,4.413,3.824,1.412V153.83h2.01l-3.936-1.453c-1.351-2.541-3.032-6.794-5.131-8.663a5.42,5.42,0,0,0-2.415-1.037,9.1,9.1,0,0,1-1.662.2,9.47,9.47,0,0,1-3.03-.615c-.374,0-.757-.011-1.133.01-4.009.235-6.05,4.7-5.926,8.367L82.1,165.62C82.16,166.566,82.754,166.952,83.864,166.939Z" transform="translate(-81.362 -129.442)" fill="#536972"/>
          <path id="Path_11" data-name="Path 11" d="M90.534,141.853a3.986,3.986,0,0,0,1.6,0,4.968,4.968,0,0,0,3.224-2.417,14.135,14.135,0,0,0,.485-5.742c-.386-2.581-2.709-3.873-5.215-3.873s-4.677,1.291-4.761,3.873a14.821,14.821,0,0,0,1.159,5.742A5.83,5.83,0,0,0,90.534,141.853Z" transform="translate(-81.224 -129.822)" fill="#536972"/>
        </g>
      </g>
      <text id="PRESENTERS" transform="translate(188 406)" fill="#536972" font-size="12" font-family="HeliaCore-Medium, Helia Core" font-weight="500"><tspan x="-33.618" y="0">PRESENTERS</tspan></text>
    </g>
  </g>
</svg>
