<svg xmlns="http://www.w3.org/2000/svg" width="34.99" height="34.99" viewBox="0 0 34.99 34.99">
  <path id="print_icon" d="M10.616-21.879a4.226,4.226,0,0,1,3.109,1.264,4.226,4.226,0,0,1,1.264,3.109v7.654a1.064,1.064,0,0,1-.308.786,1.064,1.064,0,0,1-.786.308h-3.28V-2.2A2.1,2.1,0,0,1,9.967-.66,2.1,2.1,0,0,1,8.429-.01H-13.439A2.1,2.1,0,0,1-14.977-.66,2.1,2.1,0,0,1-15.626-2.2V-8.758h-3.28a1.064,1.064,0,0,1-.786-.308A1.064,1.064,0,0,1-20-9.851v-7.654a4.226,4.226,0,0,1,1.264-3.109,4.226,4.226,0,0,1,3.109-1.264V-32.813a2.1,2.1,0,0,1,.649-1.538A2.1,2.1,0,0,1-13.439-35H5.354a2.045,2.045,0,0,1,1.5.615L10-31.241a2.045,2.045,0,0,1,.615,1.5ZM6.242-4.384v-6.561H-11.253v6.561Zm0-15.308v-6.561H2.962a1.064,1.064,0,0,1-.786-.308,1.064,1.064,0,0,1-.308-.786v-3.28H-11.253v10.934Zm3.28,4.92a1.582,1.582,0,0,0,1.162-.478,1.582,1.582,0,0,0,.478-1.162,1.582,1.582,0,0,0-.478-1.162,1.582,1.582,0,0,0-1.162-.478,1.582,1.582,0,0,0-1.162.478,1.582,1.582,0,0,0-.478,1.162,1.582,1.582,0,0,0,.478,1.162A1.582,1.582,0,0,0,9.523-14.772Z" transform="translate(20 35)" fill="#8ea5ae"/>
</svg>
