<svg xmlns="http://www.w3.org/2000/svg" width="95.87" height="95.87" viewBox="0 0 95.87 95.87">
  <g id="Group_2401" data-name="Group 2401" transform="translate(-249 -436.783)">
    <path id="btn-bg" d="M6.391,0H89.478A6.391,6.391,0,0,1,95.87,6.391V89.478a6.391,6.391,0,0,1-6.391,6.391H6.391A6.391,6.391,0,0,1,0,89.478V6.391A6.391,6.391,0,0,1,6.391,0Z" transform="translate(249 436.783)" fill="#d4e5ef"/>
    <path id="Path_65" data-name="Path 65" d="M18.1-18.669a5.26,5.26,0,0,1,3.87,1.574,5.26,5.26,0,0,1,1.574,3.87V-3.7a1.325,1.325,0,0,1-.383.978,1.325,1.325,0,0,1-.978.383H18.1V5.827A2.616,2.616,0,0,1,17.3,7.74a2.616,2.616,0,0,1-1.914.808H-11.835a2.616,2.616,0,0,1-1.914-.808,2.616,2.616,0,0,1-.808-1.914V-2.339h-4.083a1.325,1.325,0,0,1-.978-.383A1.325,1.325,0,0,1-20-3.7v-9.526a5.26,5.26,0,0,1,1.574-3.87,5.26,5.26,0,0,1,3.87-1.574V-32.278a2.616,2.616,0,0,1,.808-1.914A2.616,2.616,0,0,1-11.835-35h23.39a2.545,2.545,0,0,1,1.871.766l3.913,3.913a2.545,2.545,0,0,1,.766,1.871ZM12.661,3.1V-5.06H-9.113V3.1Zm0-19.052v-8.165H8.579A1.325,1.325,0,0,1,7.6-24.5a1.325,1.325,0,0,1-.383-.978v-4.083H-9.113v13.609Zm4.083,6.124a1.969,1.969,0,0,0,1.446-.6,1.969,1.969,0,0,0,.6-1.446,1.969,1.969,0,0,0-.6-1.446,1.969,1.969,0,0,0-1.446-.6,1.969,1.969,0,0,0-1.446.6,1.969,1.969,0,0,0-.6,1.446,1.969,1.969,0,0,0,.6,1.446A1.969,1.969,0,0,0,16.744-9.824Z" transform="translate(294.13 487.615)" fill="#536972"/>
    <text id="PRINT_LABEL" data-name="PRINT LABEL" transform="translate(263 513)" fill="#536972" font-size="12" font-family="HeliaCore-Medium, Helia Core" font-weight="500"><tspan x="0" y="0">PRINT LABEL</tspan></text>
  </g>
</svg>
