<svg xmlns="http://www.w3.org/2000/svg" width="60" height="60" viewBox="0 0 60 60"><defs><style>.a{fill:#d4e5ef;}.b,.c{fill:#536972;}.c{font-size:9px;font-family:HeliaCore-Book, Helia Core;}</style></defs><g transform="translate(-480)"><rect class="a" width="60" height="60" transform="translate(480)"/><path class="b" d="M4.15-24.65a3.334,3.334,0,0,1,2.453,1,3.334,3.334,0,0,1,1,2.453v6.038a.839.839,0,0,1-.243.62.839.839,0,0,1-.62.243H4.15v5.175a1.658,1.658,0,0,1-.512,1.213A1.658,1.658,0,0,1,2.425-7.4h-17.25a1.658,1.658,0,0,1-1.213-.512,1.658,1.658,0,0,1-.512-1.213V-14.3h-2.588a.84.84,0,0,1-.62-.243.84.84,0,0,1-.243-.62V-21.2a3.334,3.334,0,0,1,1-2.453,3.334,3.334,0,0,1,2.453-1v-8.625a1.658,1.658,0,0,1,.512-1.213A1.658,1.658,0,0,1-14.825-35H0a1.613,1.613,0,0,1,1.186.485l2.48,2.48a1.613,1.613,0,0,1,.485,1.186ZM.7-10.85v-5.175H-13.1v5.175Zm0-12.075V-28.1H-1.887a.839.839,0,0,1-.62-.243.84.84,0,0,1-.243-.62V-31.55H-13.1v8.625Zm2.587,3.881a1.248,1.248,0,0,0,.916-.377,1.248,1.248,0,0,0,.377-.916,1.248,1.248,0,0,0-.377-.916,1.248,1.248,0,0,0-.916-.377,1.248,1.248,0,0,0-.916.377,1.248,1.248,0,0,0-.377.916,1.248,1.248,0,0,0,.377.916A1.248,1.248,0,0,0,3.288-19.044Z" transform="translate(516.2 47.6)"/><text class="c" transform="translate(510 54)"><tspan x="-24.754" y="0">PRINT LABEL</tspan></text></g></svg>