<svg xmlns="http://www.w3.org/2000/svg" width="200" height="200" viewBox="0 0 200 200"><defs><style>.a{fill:#d4e5ef;}.b,.c{fill:#536972;}.c{font-size:23px;font-family:HeliaCore-Book, Helia Core;}</style></defs><g transform="translate(-1600)"><rect class="a" width="200" height="200" transform="translate(1600)"/><path class="b" d="M60.5-.5a11.113,11.113,0,0,1,8.176,3.324A11.113,11.113,0,0,1,72,11V31.125A2.768,2.768,0,0,1,69.125,34H60.5V51.25A5.83,5.83,0,0,1,54.75,57H-2.75a5.526,5.526,0,0,1-4.043-1.707A5.526,5.526,0,0,1-8.5,51.25V34h-8.625a2.8,2.8,0,0,1-2.066-.809A2.8,2.8,0,0,1-20,31.125V11a11.113,11.113,0,0,1,3.324-8.176A11.113,11.113,0,0,1-8.5-.5V-29.25a5.526,5.526,0,0,1,1.707-4.043A5.526,5.526,0,0,1-2.75-35H46.664a5.377,5.377,0,0,1,3.953,1.617l8.266,8.266A5.377,5.377,0,0,1,60.5-21.164ZM49,45.5V28.25H3V45.5ZM49,5.25V-12H40.375a2.8,2.8,0,0,1-2.066-.809,2.8,2.8,0,0,1-.809-2.066V-23.5H3V5.25Zm8.625,12.938a4.295,4.295,0,0,0,4.313-4.312,4.313,4.313,0,1,0-8.625,0,4.295,4.295,0,0,0,4.313,4.313Z" transform="translate(1674 77)"/><text class="c" transform="translate(1698 181)"><tspan x="-63.262" y="0">PRINT LABEL</tspan></text></g></svg>