<svg xmlns="http://www.w3.org/2000/svg" width="118" height="118" viewBox="0 0 118 118"><defs><style>.a{fill:#536972;}.b,.c{fill:#d4e5ef;}.c{font-size:14px;font-family:HeliaCore-Bold, Helia Core;font-weight:700;}</style></defs><g transform="translate(-16 -417)"><rect class="a" width="118" height="118" transform="translate(16 417)"/><g transform="translate(2)"><path class="b" d="M28.3-14.3a6.668,6.668,0,0,1,4.905,1.995A6.668,6.668,0,0,1,35.2-7.4V4.675A1.661,1.661,0,0,1,33.475,6.4H28.3V16.75a3.5,3.5,0,0,1-3.45,3.45H-9.65a3.316,3.316,0,0,1-2.426-1.024A3.316,3.316,0,0,1-13.1,16.75V6.4h-5.175a1.679,1.679,0,0,1-1.24-.485A1.679,1.679,0,0,1-20,4.675V-7.4a6.668,6.668,0,0,1,1.995-4.905A6.668,6.668,0,0,1-13.1-14.3V-31.55a3.316,3.316,0,0,1,1.024-2.426A3.316,3.316,0,0,1-9.65-35H20a3.226,3.226,0,0,1,2.372.97L27.33-29.07A3.226,3.226,0,0,1,28.3-26.7ZM21.4,13.3V2.95H-6.2V13.3Zm0-24.15V-21.2H16.225a1.679,1.679,0,0,1-1.24-.485,1.679,1.679,0,0,1-.485-1.24V-28.1H-6.2v17.25Zm5.175,7.763a2.5,2.5,0,0,0,1.833-.755,2.5,2.5,0,0,0,.755-1.833,2.5,2.5,0,0,0-.755-1.833,2.5,2.5,0,0,0-1.833-.755,2.5,2.5,0,0,0-1.833.755,2.5,2.5,0,0,0-.755,1.833,2.5,2.5,0,0,0,.755,1.833A2.5,2.5,0,0,0,26.575-3.087Z" transform="translate(66.4 473.2)"/><text class="c" transform="translate(73.2 513.6)"><tspan x="-40.026" y="0">PRINT LABEL</tspan></text></g></g></svg>