<svg xmlns="http://www.w3.org/2000/svg" width="60" height="60" viewBox="0 0 60 60"><defs><style>.a{fill:#d4e5ef;}.b,.c{fill:#536972;}.b{font-size:9px;font-family:HeliaCore-Book, Helia Core;}</style></defs><g transform="translate(-240)"><rect class="a" width="60" height="60" transform="translate(240)"/><text class="b" transform="translate(270 54.4)"><tspan x="-16.051" y="0">PROFILE</tspan></text><g transform="translate(253.8 10.8)"><path class="c" d="M102.583,118.6c-2.7,0-5.126,1.372-5.379,4.114a15.066,15.066,0,0,0,.887,6.1,5.144,5.144,0,0,0,8.986,0,15.1,15.1,0,0,0,.888-6.1C107.709,119.971,105.286,118.6,102.583,118.6Z" transform="translate(-86.437 -113.078)"/><path class="c" d="M102.715,113.169a16.1,16.1,0,1,0,16.1,16.1A16.118,16.118,0,0,0,102.715,113.169ZM112.9,136.1c-2.561-2.427-7.418-3.454-7.418-3.454s-1.445,5.121-2.768,5.121-2.523-5.121-2.523-5.121-6.427,1.432-7.419,3.454a8.434,8.434,0,0,0-.568,1.716,13.561,13.561,0,1,1,21.079-.078C113.14,137.025,113.005,136.427,112.9,136.1Z" transform="translate(-86.615 -113.169)"/></g></g></svg>