<svg xmlns="http://www.w3.org/2000/svg" width="200" height="200" viewBox="0 0 200 200"><defs><style>.a{fill:#d4e5ef;}.b,.c{fill:#536972;}.b{font-size:24px;font-family:HeliaCore-Book, Helia Core;}</style></defs><g transform="translate(-800)"><rect class="a" width="200" height="200" transform="translate(800)"/><text class="b" transform="translate(900 180)"><tspan x="-42.804" y="0">PROFILE</tspan></text><g transform="translate(846 36)"><path class="c" d="M115.2,118.6c-9.009,0-17.086,4.572-17.93,13.714-.444,4.772.61,16.059,2.956,20.333,2.047,3.739,6.813,7.328,12.1,8.555a14.5,14.5,0,0,0,5.752,0c5.284-1.227,10.053-4.816,12.1-8.555,2.342-4.274,3.4-15.561,2.959-20.333C132.293,123.171,124.216,118.6,115.2,118.6Z" transform="translate(-61.385 -100.194)"/><path class="c" d="M140.28,113.169a53.667,53.667,0,1,0,53.669,53.665A53.728,53.728,0,0,0,140.28,113.169Zm33.952,76.442c-8.538-8.091-24.726-11.514-24.726-11.514s-4.817,17.072-9.226,17.072-8.409-17.072-8.409-17.072-21.425,4.772-24.73,11.514a28.115,28.115,0,0,0-1.895,5.721,45.2,45.2,0,1,1,70.263-.261C175.032,192.689,174.582,190.7,174.232,189.611Z" transform="translate(-86.615 -113.169)"/></g></g></svg>