<svg xmlns="http://www.w3.org/2000/svg" width="118" height="118" viewBox="0 0 118 118"><defs><style>.a{fill:#536972;}.b,.c{fill:#d4e5ef;}.b{font-size:14px;font-family:HeliaCore-Bold, Helia Core;font-weight:700;}</style></defs><g transform="translate(-149 -151)"><rect class="a" width="118" height="118" transform="translate(149 151)"/><text class="b" transform="translate(206.6 250.6)"><tspan x="-25.9" y="0">PROFILE</tspan></text><g transform="translate(174.6 165.6)"><path class="c" d="M107.991,118.6c-5.406,0-10.252,2.743-10.758,8.228-.266,2.863.366,9.636,1.773,12.2a10.584,10.584,0,0,0,8.985,5.306,10.583,10.583,0,0,0,8.987-5.306c1.405-2.564,2.04-9.337,1.775-12.2C118.245,121.342,113.4,118.6,107.991,118.6Z" transform="translate(-75.701 -107.556)"/><path class="c" d="M118.814,113.169a32.2,32.2,0,1,0,32.2,32.2A32.237,32.237,0,0,0,118.814,113.169Zm20.371,45.865c-5.123-4.854-14.836-6.908-14.836-6.908s-2.89,10.243-5.536,10.243-5.046-10.243-5.046-10.243-12.855,2.863-14.838,6.908a16.87,16.87,0,0,0-1.137,3.433,27.121,27.121,0,1,1,42.158-.157C139.665,160.881,139.395,159.685,139.186,159.034Z" transform="translate(-86.615 -113.169)"/></g></g></svg>