<svg xmlns="http://www.w3.org/2000/svg" width="38.25" height="34" viewBox="0 0 38.25 34">
  <path id="register_icon" d="M22,30.75h8.5v2.656A1.587,1.587,0,0,1,28.906,35H6.594A1.587,1.587,0,0,1,5,33.406V2.594a1.537,1.537,0,0,1,.465-1.129A1.537,1.537,0,0,1,6.594,1H19.875v9.031a1.587,1.587,0,0,0,1.594,1.594H30.5v3.121L22,23.18ZM30.5,9.1v.4H22V1h.4a1.537,1.537,0,0,1,1.129.465l6.508,6.508A1.537,1.537,0,0,1,30.5,9.1ZM24.125,24.043,34.949,13.285,39.465,17.8,28.707,28.625H24.125ZM42.785,12.09a1.81,1.81,0,0,1,.465,1.229,1.577,1.577,0,0,1-.465,1.162L40.926,16.34,36.41,11.824,38.27,9.965A1.577,1.577,0,0,1,39.432,9.5a1.81,1.81,0,0,1,1.229.465Z" transform="translate(-5 -1)" fill="#8ea5ae"/>
</svg>
