<svg xmlns="http://www.w3.org/2000/svg" width="56.25" height="50" viewBox="0 0 56.25 50">
  <path id="register_icon" d="M30,44.75H42.5v3.906A2.334,2.334,0,0,1,40.156,51H7.344A2.334,2.334,0,0,1,5,48.656V3.344a2.26,2.26,0,0,1,.684-1.66A2.26,2.26,0,0,1,7.344,1H26.875V14.281a2.334,2.334,0,0,0,2.344,2.344H42.5v4.59L30,33.617ZM42.5,12.914V13.5H30V1h.586a2.26,2.26,0,0,1,1.66.684l9.57,9.57A2.26,2.26,0,0,1,42.5,12.914ZM33.125,34.887l15.918-15.82,6.641,6.641L39.863,41.625H33.125ZM60.566,17.309a2.661,2.661,0,0,1,.684,1.807,2.319,2.319,0,0,1-.684,1.709l-2.734,2.734-6.641-6.641,2.734-2.734a2.319,2.319,0,0,1,1.709-.684,2.661,2.661,0,0,1,1.807.684Z" transform="translate(-5 -1)" fill="#536972"/>
</svg>
