<svg xmlns="http://www.w3.org/2000/svg" width="116.75" height="116.75" viewBox="0 0 116.75 116.75"><defs><style>.a{fill:#536972;}.b,.c{fill:#d4e5ef;}.c{font-size:12px;font-family:HeliaCore-Bold, Helia Core;font-weight:700;}</style></defs><rect class="a" width="116.75" height="116.75"/><g transform="translate(28.02 21.825)"><g transform="translate(0 0)"><g transform="translate(10.283 10.591)"><path class="b" d="M91.032,78.13H78.042V91.62h12.99ZM87.7,88.16H81.375V81.592H87.7Z" transform="translate(-78.041 -78.13)"/><path class="b" d="M78.041,138.729h12.99v-13.49H78.041ZM81.375,128.7H87.7v6.568H81.375Z" transform="translate(-78.041 -98.082)"/><path class="b" d="M138.142,78.13h-12.99V91.62h12.99Zm-3.333,10.03h-6.324V81.592h6.324Z" transform="translate(-99.002 -78.13)"/><path class="b" d="M134.952,118.25v-7.976h-4.745v-5.467h-5.285V110.3h2.374v5.955h-9.533v9.9h9.533v3.925h7.559v-7.85h-7.559V118.25Z" transform="translate(-95.714 -89.428)"/><rect class="b" width="5.323" height="5.529" transform="translate(14.917 7.962)"/><rect class="b" width="5.323" height="5.529" transform="translate(14.917 35.119)"/><rect class="b" width="5.323" height="5.529" transform="translate(14.917 27.157)"/><rect class="b" width="5.566" height="5.78" transform="translate(18.646 0)"/><path class="b" d="M87.3,114.832v-4.411H84.366v-5.2H78.043v6.567h5.009v3.046Z" transform="translate(-78.042 -89.603)"/><path class="b" d="M115.212,114.657v-4.411h-4.247v-5.44h-6.323v3.284H98.319v6.567h6.323v-3.284h6.323v3.284Z" transform="translate(-87.063 -89.428)"/></g><g transform="translate(0 0)"><g transform="translate(41.887 43.222)"><path class="b" d="M152.9,153.343H134.978V147.45H147.22V134.736H152.9Z" transform="translate(-134.978 -134.736)"/></g><g transform="translate(0 43.222)"><path class="b" d="M77.44,153.343H59.515V134.736h5.674V147.45H77.44Z" transform="translate(-59.515 -134.736)"/></g><path class="b" d="M65.189,78.365H59.515V59.758H77.44v5.893H65.189Z" transform="translate(-59.515 -59.758)"/><g transform="translate(41.887)"><path class="b" d="M152.9,78.365H147.22V65.651H134.978V59.758H152.9Z" transform="translate(-134.978 -59.758)"/></g></g></g></g><text class="c" transform="translate(55.862 106.788)"><tspan x="-14.622" y="0">SCAN</tspan></text></svg>