<svg xmlns="http://www.w3.org/2000/svg" width="60" height="60" viewBox="0 0 60 60"><defs><style>.a{fill:#d4e5ef;}.b,.c{fill:#536972;}.c{font-size:9px;font-family:HeliaCore-Book, Helia Core;}</style></defs><g transform="translate(-120)"><rect class="a" width="60" height="60" transform="translate(120)"/><g transform="translate(134.4 10.8)"><g transform="translate(0 0)"><g transform="translate(5.285 5.241)"><path class="b" d="M84.718,78.13H78.042v6.676h6.676Zm-1.712,4.963h-3.25v-3.25h3.25Z" transform="translate(-78.042 -78.13)"/><path class="b" d="M78.041,131.915h6.676v-6.676H78.041Zm1.714-4.963H83v3.25h-3.25Z" transform="translate(-78.041 -111.801)"/><path class="b" d="M131.828,78.13h-6.676v6.676h6.676Zm-1.713,4.963h-3.25v-3.25h3.25Z" transform="translate(-111.713 -78.13)"/><path class="b" d="M126.6,111.459v-3.947h-2.439v-2.705h-2.716v2.716h1.22v2.947h-4.9v4.9h4.9v1.942h3.885v-3.885h-3.885v-1.968Z" transform="translate(-106.431 -97.197)"/><rect class="b" width="2.736" height="2.736" transform="translate(7.666 3.94)"/><rect class="b" width="2.736" height="2.736" transform="translate(7.666 17.378)"/><rect class="b" width="2.736" height="2.736" transform="translate(7.666 13.439)"/><rect class="b" width="2.86" height="2.86" transform="translate(9.583 0)"/><path class="b" d="M82.8,109.976v-2.183H81.293v-2.574h-3.25v3.25h2.574v1.507Z" transform="translate(-78.042 -97.492)"/><path class="b" d="M107,109.681V107.5h-2.183v-2.692h-3.25v1.625h-3.25v3.25h3.25v-1.625h3.25v1.625Z" transform="translate(-92.534 -97.197)"/></g><g transform="translate(21.527 21.388)"><path class="b" d="M144.186,143.943h-9.208v-2.916h6.291v-6.292h2.916Z" transform="translate(-134.979 -134.736)"/></g><g transform="translate(0 21.388)"><path class="b" d="M68.727,143.943H59.515v-9.208h2.916v6.292h6.3Z" transform="translate(-59.515 -134.736)"/></g><path class="b" d="M62.431,68.966H59.515V59.758h9.212v2.916h-6.3Z" transform="translate(-59.515 -59.758)"/><g transform="translate(21.527)"><path class="b" d="M144.186,68.966H141.27V62.674h-6.291V59.758h9.208Z" transform="translate(-134.979 -59.758)"/></g></g></g><text class="c" transform="translate(150 54.4)"><tspan x="-10.476" y="0">SCAN</tspan></text></g></svg>