<svg xmlns="http://www.w3.org/2000/svg" width="200" height="200" viewBox="0 0 200 200"><defs><style>.a{fill:#d4e5ef;}.b,.c{fill:#536972;}.c{font-size:24px;font-family:HeliaCore-Book, Helia Core;}</style></defs><g transform="translate(-400)"><path class="a" d="M0,0H200V200H0Z" transform="translate(400)"/><g transform="translate(448 36)"><g transform="translate(17.616 17.469)"><path class="b" d="M100.294,78.13H78.042v22.252h22.252ZM94.586,94.674H83.752V83.84H94.586Z" transform="translate(-78.041 -78.13)"/><path class="b" d="M78.041,147.491h22.252V125.239H78.041Zm5.712-16.543H94.586v10.834H83.753Z" transform="translate(-78.041 -80.444)"/><path class="b" d="M147.4,78.13H125.152v22.252H147.4Zm-5.71,16.544H130.861V83.84h10.833Z" transform="translate(-80.355 -78.13)"/><path class="b" d="M147.209,126.981V113.825H139.08v-9.018h-9.054v9.054h4.066v9.823h-16.33v16.33h16.33v6.474h12.949V133.539H134.092v-6.558Z" transform="translate(-79.992 -79.441)"/><rect class="b" width="9.119" height="9.119" transform="translate(25.554 13.133)"/><rect class="b" width="9.119" height="9.119" transform="translate(25.554 57.928)"/><rect class="b" width="9.119" height="9.119" transform="translate(25.554 44.795)"/><rect class="b" width="9.534" height="9.534" transform="translate(31.943 0)"/><path class="b" d="M93.9,121.076V113.8H88.875v-8.581H78.043v10.832h8.581v5.024Z" transform="translate(-78.041 -79.461)"/><path class="b" d="M127.259,121.055V113.78h-7.276v-8.973H109.151v5.416H98.319v10.832h10.832v-5.416h10.832v5.416Z" transform="translate(-79.037 -79.441)"/></g><g transform="translate(0 0)"><g transform="translate(71.756 71.294)"><path class="b" d="M165.671,165.428H134.979v-9.72h20.971V134.736h9.721Z" transform="translate(-134.979 -134.736)"/></g><g transform="translate(0 71.294)"><path class="b" d="M90.222,165.428H59.515V134.736h9.719v20.972H90.222Z" transform="translate(-59.515 -134.736)"/></g><path class="b" d="M69.235,90.45H59.515V59.758H90.222v9.72H69.235Z" transform="translate(-59.515 -59.758)"/><g transform="translate(71.756)"><path class="b" d="M165.671,90.45h-9.721V69.478H134.979v-9.72h30.692Z" transform="translate(-134.979 -59.758)"/></g></g></g><text class="c" transform="translate(499 180)"><tspan x="-27.936" y="0">SCAN</tspan></text></g></svg>