<svg xmlns="http://www.w3.org/2000/svg" width="200" height="200" viewBox="0 0 200 200"><defs><style>.a{fill:#d4e5ef;}.b,.c{fill:#536972;}.c{font-size:24px;font-family:HeliaCore-Book, Helia Core;}</style></defs><g transform="translate(-600)"><rect class="a" width="200" height="200" transform="translate(600)"/><g transform="translate(639 36)"><path class="b" d="M351.893,125.239H327.384v24.508h24.508ZM345.6,143.46H333.673V131.528H345.6Z" transform="translate(-327.383 -97.085)"/><path class="b" d="M327.383,203.675h24.509V179.166H327.383Zm6.29-18.22h11.933v11.932H333.673Z" transform="translate(-327.383 -101.675)"/><rect class="b" width="10.044" height="10.044" transform="translate(28.145 91.956)"/><rect class="b" width="10.044" height="10.044" transform="translate(28.145 77.492)"/><path class="b" d="M344.849,173.713V165.7h-5.534v-9.451H327.384V168.18h9.451v5.533Z" transform="translate(-327.383 -99.725)"/><path class="b" d="M375.568,125.239h-9.731v10.5h7.006A30.923,30.923,0,0,1,375.568,125.239Z" transform="translate(-330.657 -97.085)"/><path class="b" d="M372.037,141.05H358.146v10.043h15.881A29.575,29.575,0,0,1,372.037,141.05Z" transform="translate(-330.002 -98.431)"/><path class="b" d="M375.727,157.332c-.294-.517-.563-1.036-.827-1.555H362.526v5.965H350.6v11.931h11.931v-5.965h11.931v5.965h8.013v-7.684A35.587,35.587,0,0,1,375.727,157.332Z" transform="translate(-329.359 -99.684)"/><path class="b" d="M399.063,167.846A8.251,8.251,0,0,1,394,171.025a8.108,8.108,0,0,1-1.575.156,7.822,7.822,0,0,1-1.59-.183v6.493H372.852v17.985h17.986v7.131H405.1V188.347H390.838v-7.224h14.447V166.634H399.79A7.626,7.626,0,0,1,399.063,167.846Z" transform="translate(-331.254 -100.609)"/><g transform="translate(47.508)"><path class="b" d="M452.537,117.438a3.522,3.522,0,0,1,0,5.23l-25.57,22.083a3.232,3.232,0,0,1-2.543.872,3.741,3.741,0,0,1-2.324-1.09,3.246,3.246,0,0,1-.945-2.4V129.352q-11.913.145-18.16,2.47-6.974,2.469-8.862,8.354t1.307,16.2a2.016,2.016,0,0,1-.218,2.034,2.793,2.793,0,0,1-1.744,1.09,2.627,2.627,0,0,1-2.107-.509,28.99,28.99,0,0,1-8.426-9.589,25.682,25.682,0,0,1-3.633-12.785q0-15.255,12.2-21.648,9.734-5.084,29.638-5.376V97.97a3.244,3.244,0,0,1,.945-2.4,3.741,3.741,0,0,1,2.324-1.09,3.231,3.231,0,0,1,2.543.871Z" transform="translate(-379.312 -94.465)"/></g></g><text class="c" transform="translate(700 180)"><tspan x="-33.756" y="0">SHARE</tspan></text></g></svg>