<svg xmlns="http://www.w3.org/2000/svg" width="118" height="118" viewBox="0 0 118 118"><defs><style>.a{fill:#536972;}.b,.c{fill:#d4e5ef;}.c{font-size:14px;font-family:HeliaCore-Bold, Helia Core;font-weight:700;}</style></defs><g transform="translate(-16 -151)"><rect class="a" width="118" height="118" transform="translate(16 151)"/><g transform="translate(34 163.463)"><path class="b" d="M343.8,125.239h-16.42v16.42H343.8Zm-4.213,12.208H331.6v-7.995h7.994Z" transform="translate(-327.383 -106.377)"/><path class="b" d="M327.383,195.586H343.8v-16.42h-16.42Zm4.214-12.207h7.994v7.994H331.6Z" transform="translate(-327.383 -127.25)"/><rect class="b" width="6.729" height="6.729" transform="translate(18.856 61.608)"/><rect class="b" width="6.729" height="6.729" transform="translate(18.856 51.917)"/><path class="b" d="M339.085,167.949v-5.369h-3.707v-6.332h-7.993v7.993h6.332v3.707Z" transform="translate(-327.383 -118.379)"/><path class="b" d="M372.357,125.239h-6.52v7.036h4.694A20.716,20.716,0,0,1,372.357,125.239Z" transform="translate(-342.267 -106.377)"/><path class="b" d="M367.453,141.05h-9.307v6.729h10.64A19.813,19.813,0,0,1,367.453,141.05Z" transform="translate(-339.29 -112.496)"/><path class="b" d="M367.433,156.819c-.2-.346-.377-.694-.554-1.042h-8.291v4H350.6v7.993h7.993v-4h7.993v4h5.368v-5.148A23.841,23.841,0,0,1,367.433,156.819Z" transform="translate(-336.367 -118.197)"/><path class="b" d="M390.413,167.446a5.528,5.528,0,0,1-3.39,2.13,5.433,5.433,0,0,1-1.055.1,5.242,5.242,0,0,1-1.065-.123v4.35h-12.05v12.05H384.9v4.778h9.555v-9.555H384.9v-4.84h9.679v-9.707H390.9A5.1,5.1,0,0,1,390.413,167.446Z" transform="translate(-344.982 -122.399)"/><g transform="translate(31.829)"><path class="b" d="M428.37,109.856a2.36,2.36,0,0,1,0,3.5l-17.131,14.8a2.165,2.165,0,0,1-1.7.584,2.507,2.507,0,0,1-1.557-.73,2.175,2.175,0,0,1-.633-1.606v-8.566q-7.981.1-12.167,1.655-4.672,1.654-5.938,5.6t.876,10.853a1.35,1.35,0,0,1-.146,1.363,1.871,1.871,0,0,1-1.168.73,1.76,1.76,0,0,1-1.412-.341,19.422,19.422,0,0,1-5.645-6.424,17.206,17.206,0,0,1-2.434-8.566q0-10.22,8.177-14.5,6.521-3.406,19.857-3.6V96.813a2.174,2.174,0,0,1,.633-1.606,2.507,2.507,0,0,1,1.557-.73,2.165,2.165,0,0,1,1.7.583Z" transform="translate(-379.312 -94.465)"/></g></g><text class="c" transform="translate(74.4 250.8)"><tspan x="-20.65" y="0">SHARE</tspan></text></g></svg>