<svg xmlns="http://www.w3.org/2000/svg" width="60" height="60" viewBox="0 0 60 60"><defs><style>.a{fill:#d4e5ef;}.b,.c{fill:#536972;}.c{font-size:9px;font-family:HeliaCore-Book, Helia Core;}</style></defs><g transform="translate(-180)"><rect class="a" width="60" height="60" transform="translate(180)"/><g transform="translate(192 10.8)"><path class="b" d="M334.737,125.239h-7.353v7.353h7.353Zm-1.886,5.466h-3.58v-3.58h3.58Z" transform="translate(-327.384 -116.793)"/><path class="b" d="M327.383,186.519h7.353v-7.353h-7.353Zm1.887-5.466h3.58v3.58h-3.58Z" transform="translate(-327.383 -155.919)"/><rect class="b" width="3.013" height="3.013" transform="translate(8.443 27.587)"/><rect class="b" width="3.013" height="3.013" transform="translate(8.443 23.247)"/><path class="b" d="M332.624,161.488v-2.4h-1.66v-2.835h-3.579v3.579h2.835v1.66Z" transform="translate(-327.384 -139.291)"/><path class="b" d="M368.756,125.239h-2.919v3.151h2.1A9.277,9.277,0,0,1,368.756,125.239Z" transform="translate(-355.283 -116.793)"/><path class="b" d="M362.313,141.05h-4.167v3.013h4.764A8.873,8.873,0,0,1,362.313,141.05Z" transform="translate(-349.703 -128.264)"/><path class="b" d="M358.135,156.244c-.088-.155-.169-.311-.248-.467h-3.712v1.79H350.6v3.579h3.579v-1.789h3.579v1.789h2.4v-2.305A10.676,10.676,0,0,1,358.135,156.244Z" transform="translate(-344.224 -138.949)"/><path class="b" d="M380.715,167a2.475,2.475,0,0,1-1.518.954,2.432,2.432,0,0,1-.473.047,2.346,2.346,0,0,1-.477-.055v1.948h-5.4v5.4h5.4v2.139h4.279v-4.279h-4.279v-2.167h4.334v-4.347h-1.648A2.287,2.287,0,0,1,380.715,167Z" transform="translate(-360.372 -146.826)"/><g transform="translate(14.253)"><path class="b" d="M401.279,101.357a1.057,1.057,0,0,1,0,1.569l-7.671,6.625a.97.97,0,0,1-.763.262,1.122,1.122,0,0,1-.7-.327.974.974,0,0,1-.283-.719v-3.836a16.988,16.988,0,0,0-5.448.741,3.938,3.938,0,0,0-2.659,2.506,8.406,8.406,0,0,0,.392,4.86.6.6,0,0,1-.065.61.838.838,0,0,1-.523.327.788.788,0,0,1-.632-.153,8.7,8.7,0,0,1-2.528-2.877,7.7,7.7,0,0,1-1.09-3.836,6.738,6.738,0,0,1,3.661-6.494q2.92-1.525,8.891-1.613V95.517a.973.973,0,0,1,.283-.719,1.122,1.122,0,0,1,.7-.327.969.969,0,0,1,.763.261Z" transform="translate(-379.312 -94.465)"/></g></g><text class="c" transform="translate(210 54.4)"><tspan x="-12.658" y="0">SHARE</tspan></text></g></svg>