<svg xmlns="http://www.w3.org/2000/svg" width="60" height="60" viewBox="0 0 60 60"><defs><style>.a{fill:#d4e5ef;}.b,.c,.d{fill:#536972;}.b{fill-rule:evenodd;}.d{font-size:9px;font-family:HeliaCore-Book, Helia Core;}</style></defs><g transform="translate(-420)"><rect class="a" width="60" height="60" transform="translate(420)"/><g transform="translate(437.4 9.4)"><path class="b" d="M101.96,170.5V150.361h6.179l-.607-2.267a.244.244,0,0,0-.1-.152l-3.68-2.434a.56.56,0,0,1,.618-.933l3.915,2.59a.559.559,0,0,1,.251.335l.767,2.862h.565l-.778-3.01a.34.34,0,0,0-.159-.217l-2.547-1.614a.559.559,0,0,1,.6-.946l2.848,1.8a.556.556,0,0,1,.252.338l.942,3.644h2.518v2.379H111.8l-2.4,17.764Z" transform="translate(-88.507 -134.904)"/><path class="c" d="M82.948,157.9h.485l-.078,11.785c0,.018,0,.032,0,.05h3.521c0-.018.006-.032.008-.05l.651-9.883.116,9.883c0,.018,0,.032,0,.05h3.52c0-.018.005-.032.007-.05l.268-6.908.22-4.87h.365c.01-2.74.022-6.295.033-9.035l.321,2.8,2.424.895v-2.972h1.274l-2.494-.921c-.856-1.611-1.921-4.306-3.252-5.49a3.434,3.434,0,0,0-1.53-.657,5.768,5.768,0,0,1-1.053.126,6,6,0,0,1-1.92-.39c-.237,0-.48-.007-.718.007-2.541.149-3.835,2.978-3.755,5.3l.465,9.5C81.867,157.664,82.244,157.908,82.948,157.9Z" transform="translate(-81.362 -134.136)"/><path class="c" d="M88.824,137.447a2.526,2.526,0,0,0,1.014,0,3.149,3.149,0,0,0,2.043-1.532,8.959,8.959,0,0,0,.308-3.639,3.068,3.068,0,0,0-3.3-2.454c-1.588,0-2.964.818-3.017,2.454a9.393,9.393,0,0,0,.735,3.639A3.7,3.7,0,0,0,88.824,137.447Z" transform="translate(-82.924 -129.822)"/></g><text class="d" transform="translate(450 54.4)"><tspan x="-19.44" y="0">SPEAKERS</tspan></text></g></svg>