<svg xmlns="http://www.w3.org/2000/svg" width="200" height="200" viewBox="0 0 200 200"><defs><style>.a{fill:#d4e5ef;}.b,.c,.d{fill:#536972;}.b{fill-rule:evenodd;}.d{font-size:24px;font-family:HeliaCore-Book, Helia Core;}</style></defs><g transform="translate(-1400)"><rect class="a" width="200" height="200" transform="translate(1400)"/><g transform="translate(1458 31.333)"><path class="b" d="M101.96,231.242V164.1h20.6l-2.023-7.557a.814.814,0,0,0-.348-.507l-12.266-8.114a1.866,1.866,0,0,1,2.06-3.111l13.049,8.632a1.862,1.862,0,0,1,.838,1.117l2.556,9.54h1.883l-2.593-10.032a1.135,1.135,0,0,0-.529-.725l-8.491-5.38a1.863,1.863,0,0,1,1.986-3.152l9.494,6.015a1.853,1.853,0,0,1,.84,1.128l3.142,12.146h8.395v7.931h-5.806l-8.01,59.215Z" transform="translate(-57.116 -112.575)"/><path class="c" d="M86.648,194.4h1.618L88,233.683c0,.061.009.107.009.168H99.75c.007-.061.02-.107.026-.168l2.171-32.944.385,32.944c0,.061.013.107.015.168h11.734c.007-.061.017-.107.022-.168L115,210.656l.734-16.232h1.217c.035-9.133.074-20.983.109-30.118l1.071,9.322,8.079,2.983V166.7h4.245l-8.314-3.07c-2.854-5.369-6.4-14.354-10.84-18.3-2.952-1.916-4.914-2.255-5.1-2.19a19.227,19.227,0,0,1-3.512.42,20.006,20.006,0,0,1-6.4-1.3c-.79,0-1.6-.024-2.393.022-8.469.5-12.782,9.927-12.518,17.676l1.55,31.651C83.047,193.611,84.3,194.425,86.648,194.4Z" transform="translate(-81.362 -115.184)"/><path class="c" d="M95.729,155.24a8.421,8.421,0,0,0,3.381,0,10.5,10.5,0,0,0,6.81-5.105c1.226-2.549,1.452-9.283,1.025-12.131-.816-5.454-5.724-8.182-11.016-8.182S86.05,132.55,85.871,138c-.094,2.848.923,9.581,2.449,12.131A12.317,12.317,0,0,0,95.729,155.24Z" transform="translate(-76.061 -129.822)"/></g><text class="d" transform="translate(1500 180)"><tspan x="-51.84" y="0">SPEAKERS</tspan></text></g></svg>