<svg xmlns="http://www.w3.org/2000/svg" width="80" height="80" viewBox="0 0 80 80">
  <g id="speakers_box" transform="translate(-269 -146)">
    <rect id="btn-bg" width="80" height="80" transform="translate(269 146)" fill="#d4e5ef"/>
    <g id="presenters_icon" transform="translate(291 161)">
      <path id="Path_9" data-name="Path 9" d="M101.96,181.033V152.742h8.679l-.852-3.184a.343.343,0,0,0-.147-.214l-5.168-3.419a.786.786,0,0,1,.868-1.311l5.5,3.637a.785.785,0,0,1,.353.471l1.077,4.02h.793l-1.093-4.227a.478.478,0,0,0-.223-.305l-3.578-2.267a.785.785,0,0,1,.837-1.328l4,2.535a.781.781,0,0,1,.354.475l1.324,5.118h3.537v3.342h-2.446l-3.375,24.95Z" transform="translate(-83.065 -131.034)" fill="#536972" fill-rule="evenodd"/>
      <g id="Group_4" data-name="Group 4">
        <path id="Path_10" data-name="Path 10" d="M83.589,164.228h.682l-.11,16.552c0,.026,0,.045,0,.071H89.11c0-.026.008-.045.011-.071l.915-13.881L90.2,180.78c0,.026.005.045.006.071h4.944c0-.026.007-.045.009-.071l.376-9.7.309-6.839h.513c.015-3.848.031-8.841.046-12.69l.451,3.928,3.4,1.257v-4.174h1.789l-3.5-1.293c-1.2-2.262-2.7-6.048-4.567-7.711a4.824,4.824,0,0,0-2.149-.923,8.1,8.1,0,0,1-1.48.177,8.429,8.429,0,0,1-2.7-.548c-.333,0-.674-.01-1.008.009-3.568.209-5.386,4.183-5.275,7.448l.653,13.336C82.072,163.9,82.6,164.239,83.589,164.228Z" transform="translate(-81.362 -130.85)" fill="#536972"/>
        <path id="Path_11" data-name="Path 11" d="M90.021,140.532a3.548,3.548,0,0,0,1.425,0,4.423,4.423,0,0,0,2.869-2.151,12.583,12.583,0,0,0,.432-5.111c-.344-2.3-2.412-3.447-4.642-3.447s-4.163,1.149-4.238,3.447a13.193,13.193,0,0,0,1.032,5.111A5.19,5.19,0,0,0,90.021,140.532Z" transform="translate(-81.734 -129.822)" fill="#536972"/>
      </g>
    </g>
  </g>
</svg>
