<svg xmlns="http://www.w3.org/2000/svg" width="118" height="118" viewBox="0 0 118 118"><defs><style>.a{fill:#536972;}.b,.c,.d{fill:#d4e5ef;}.b{fill-rule:evenodd;}.d{font-size:13px;font-family:HeliaCore-Bold, Helia Core;font-weight:700;}</style></defs><g transform="translate(-149 -284)"><rect class="a" width="118" height="118" transform="translate(149 284)"/><g transform="translate(183.8 297.8)"><path class="b" d="M101.96,196.535V156.247h12.358l-1.214-4.534a.489.489,0,0,0-.209-.3l-7.359-4.868a1.119,1.119,0,0,1,1.236-1.867l7.83,5.179a1.117,1.117,0,0,1,.5.67l1.534,5.724h1.13l-1.556-6.019a.681.681,0,0,0-.317-.435l-5.094-3.228a1.118,1.118,0,0,1,1.191-1.891l5.7,3.609a1.112,1.112,0,0,1,.5.677l1.885,7.288h5.037v4.759h-3.484l-4.806,35.529Z" transform="translate(-75.053 -125.335)"/><path class="c" d="M84.534,173.543H85.5l-.157,23.57c0,.037.005.064.005.1h7.042c0-.037.012-.064.016-.1l1.3-19.766.231,19.766c0,.037.008.064.009.1h7.041c0-.037.01-.064.013-.1l.536-13.816.44-9.739h.73c.021-5.48.044-12.59.065-18.071l.643,5.593,4.848,1.79v-5.943h2.547l-4.989-1.842c-1.713-3.221-3.843-8.612-6.5-10.98a6.869,6.869,0,0,0-3.061-1.314,11.534,11.534,0,0,1-2.107.252,12,12,0,0,1-3.84-.78c-.474,0-.96-.014-1.436.013-5.081.3-7.669,5.956-7.511,10.605l.93,18.99C82.373,173.07,83.127,173.558,84.534,173.543Z" transform="translate(-81.362 -126.013)"/><path class="c" d="M91.784,145.073a5.052,5.052,0,0,0,2.029,0,6.3,6.3,0,0,0,4.086-3.063c.735-1.53.871-5.57.615-7.278-.49-3.272-3.434-4.909-6.61-4.909s-5.928,1.637-6.035,4.909c-.056,1.709.554,5.749,1.47,7.278A7.39,7.39,0,0,0,91.784,145.073Z" transform="translate(-79.983 -129.822)"/></g><text class="d" transform="translate(206.6 383.4)"><tspan x="-29.503" y="0">SPEAKERS</tspan></text></g></svg>