<svg xmlns="http://www.w3.org/2000/svg" width="120" height="85.118" viewBox="0 0 120 85.118">
  <g id="Vector_Smart_Object" data-name="Vector Smart Object" transform="translate(0)">
    <g id="Vector_Smart_Object-2" data-name="Vector Smart Object">
      <rect id="Rectangle_151" data-name="Rectangle 151" width="120" height="85.118" fill="#fff"/>
      <g id="Group_1077" data-name="Group 1077" transform="translate(17.773 21.55)">
        <path id="Path_18223" data-name="Path 18223" d="M96.27,117.851l.546,2.923H95.721Zm3.034,4.987-2.989-15.96h-.1l-2.982,15.96Z" transform="translate(-81.983 -95.154)"/>
        <path id="Path_18224" data-name="Path 18224" d="M76.773,109.172l-1.232-6.39H67.209l-1.23,6.39H59.154l8.53-37.889h7.67l8.522,37.889Zm.594-38.339a2.062,2.062,0,0,0-2.012-1.612H67.681a2.057,2.057,0,0,0-2.013,1.612l-8.53,37.887a2.064,2.064,0,0,0,2.013,2.517h6.826a2.063,2.063,0,0,0,2.029-1.674l.908-4.714h4.919l.911,4.715a2.062,2.062,0,0,0,2.027,1.674l7.108,0a2.067,2.067,0,0,0,2.013-2.519Z" transform="translate(-57.087 -69.22)"/>
        <path id="Path_18225" data-name="Path 18225" d="M179.662,103.248l-5.92,5.924h-9.473l-5.919-5.924V71.283h7.1v31.5h7.107v-31.5h7.1Zm0-34.028h-7.1a2.064,2.064,0,0,0-2.065,2.064v29.433h-2.978V71.283a2.066,2.066,0,0,0-2.065-2.064h-7.1a2.064,2.064,0,0,0-2.067,2.064V103.25a2.057,2.057,0,0,0,.606,1.457l5.917,5.924a2.06,2.06,0,0,0,1.458.6l9.478,0a2.055,2.055,0,0,0,1.461-.607l5.918-5.924a2.071,2.071,0,0,0,.6-1.457V71.283a2.062,2.062,0,0,0-2.063-2.064" transform="translate(-125.402 -69.219)"/>
        <path id="Path_18226" data-name="Path 18226" d="M270.013,77.678h-7.1v31.494h-7.107V77.678H248.7v-6.4h21.311Zm1.458-7.855a2.079,2.079,0,0,0-1.46-.6H248.7a2.064,2.064,0,0,0-2.065,2.064v6.394a2.066,2.066,0,0,0,2.065,2.065h5.044v29.43a2.066,2.066,0,0,0,2.064,2.063h7.107a2.069,2.069,0,0,0,2.065-2.063V79.74h5.032a2.064,2.064,0,0,0,2.065-2.063V71.283a2.08,2.08,0,0,0-.606-1.46" transform="translate(-187.624 -69.219)"/>
      </g>
    </g>
  </g>
</svg>
